<mxfile host="Electron" modified="2023-07-13T16:12:01.159Z" agent="Mozilla/5.0 (Windows NT 10.0; Win64; x64) AppleWebKit/537.36 (KHTML, like Gecko) draw.io/21.6.1 Chrome/112.0.5615.204 Electron/24.6.1 Safari/537.36" etag="WtrAYmEbI1-TTOqVuOUR" version="21.6.1" type="device" pages="2">
  <diagram name="Library ERD" id="YmtvI0bYYFkGRIp-z9my">
    <mxGraphModel dx="1720" dy="839" grid="1" gridSize="10" guides="1" tooltips="1" connect="1" arrows="1" fold="1" page="1" pageScale="1" pageWidth="850" pageHeight="1100" math="0" shadow="0">
      <root>
        <mxCell id="0" />
        <mxCell id="1" parent="0" />
        <mxCell id="dCs6q-ByPArtNBq-c7CD-46" value="" style="ellipse;whiteSpace=wrap;html=1;labelBackgroundColor=none;fillColor=#FAE5C7;strokeColor=#0F8B8D;fontColor=#143642;" vertex="1" parent="1">
          <mxGeometry x="131.25" y="520.43" width="70" height="35" as="geometry" />
        </mxCell>
        <mxCell id="dCs6q-ByPArtNBq-c7CD-1" value="&lt;font style=&quot;font-size: 18px;&quot;&gt;Employee&lt;/font&gt;" style="rounded=0;whiteSpace=wrap;html=1;labelBackgroundColor=none;fillColor=#FAE5C7;strokeColor=#0F8B8D;fontColor=#143642;" vertex="1" parent="1">
          <mxGeometry x="130" y="155" width="90" height="40" as="geometry" />
        </mxCell>
        <mxCell id="dCs6q-ByPArtNBq-c7CD-3" value="Emp_Id" style="ellipse;whiteSpace=wrap;html=1;labelBackgroundColor=none;fillColor=#FAE5C7;strokeColor=#0F8B8D;fontColor=#143642;" vertex="1" parent="1">
          <mxGeometry x="30" y="140" width="60" height="35" as="geometry" />
        </mxCell>
        <mxCell id="dCs6q-ByPArtNBq-c7CD-4" value="Fname" style="ellipse;whiteSpace=wrap;html=1;labelBackgroundColor=none;fillColor=#FAE5C7;strokeColor=#0F8B8D;fontColor=#143642;" vertex="1" parent="1">
          <mxGeometry x="10" y="90" width="50" height="20" as="geometry" />
        </mxCell>
        <mxCell id="dCs6q-ByPArtNBq-c7CD-5" value="Lname" style="ellipse;whiteSpace=wrap;html=1;labelBackgroundColor=none;fillColor=#FAE5C7;strokeColor=#0F8B8D;fontColor=#143642;" vertex="1" parent="1">
          <mxGeometry x="40" y="65" width="50" height="20" as="geometry" />
        </mxCell>
        <mxCell id="dCs6q-ByPArtNBq-c7CD-6" value="Name" style="ellipse;whiteSpace=wrap;html=1;labelBackgroundColor=none;fillColor=#FAE5C7;strokeColor=#0F8B8D;fontColor=#143642;" vertex="1" parent="1">
          <mxGeometry x="55" y="110" width="40" height="20" as="geometry" />
        </mxCell>
        <mxCell id="dCs6q-ByPArtNBq-c7CD-7" value="Email" style="ellipse;whiteSpace=wrap;html=1;labelBackgroundColor=none;fillColor=#FAE5C7;strokeColor=#0F8B8D;fontColor=#143642;" vertex="1" parent="1">
          <mxGeometry x="90" y="90" width="50" height="20" as="geometry" />
        </mxCell>
        <mxCell id="dCs6q-ByPArtNBq-c7CD-8" value="Salary" style="ellipse;whiteSpace=wrap;html=1;labelBackgroundColor=none;fillColor=#FAE5C7;strokeColor=#0F8B8D;fontColor=#143642;" vertex="1" parent="1">
          <mxGeometry x="130" y="65" width="40" height="20" as="geometry" />
        </mxCell>
        <mxCell id="dCs6q-ByPArtNBq-c7CD-9" value="DateOfBirth" style="ellipse;whiteSpace=wrap;html=1;labelBackgroundColor=none;fillColor=#FAE5C7;strokeColor=#0F8B8D;fontColor=#143642;" vertex="1" parent="1">
          <mxGeometry x="170" y="60" width="70" height="25" as="geometry" />
        </mxCell>
        <mxCell id="dCs6q-ByPArtNBq-c7CD-10" value="Bounus" style="ellipse;whiteSpace=wrap;html=1;labelBackgroundColor=none;fillColor=#FAE5C7;strokeColor=#0F8B8D;fontColor=#143642;" vertex="1" parent="1">
          <mxGeometry x="190" y="95" width="50" height="20" as="geometry" />
        </mxCell>
        <mxCell id="dCs6q-ByPArtNBq-c7CD-11" value="Address" style="ellipse;whiteSpace=wrap;html=1;labelBackgroundColor=none;fillColor=#FAE5C7;strokeColor=#0F8B8D;fontColor=#143642;" vertex="1" parent="1">
          <mxGeometry x="250" y="75" width="60" height="20" as="geometry" />
        </mxCell>
        <mxCell id="dCs6q-ByPArtNBq-c7CD-13" value="" style="endArrow=none;html=1;rounded=0;entryX=0;entryY=0.5;entryDx=0;entryDy=0;exitX=1;exitY=0.5;exitDx=0;exitDy=0;labelBackgroundColor=none;fontColor=default;strokeColor=#A8201A;" edge="1" parent="1" source="dCs6q-ByPArtNBq-c7CD-3" target="dCs6q-ByPArtNBq-c7CD-1">
          <mxGeometry width="50" height="50" relative="1" as="geometry">
            <mxPoint x="60" y="235" as="sourcePoint" />
            <mxPoint x="110" y="185" as="targetPoint" />
          </mxGeometry>
        </mxCell>
        <mxCell id="dCs6q-ByPArtNBq-c7CD-14" value="" style="endArrow=none;html=1;rounded=0;exitX=1;exitY=1;exitDx=0;exitDy=0;entryX=0;entryY=0.25;entryDx=0;entryDy=0;labelBackgroundColor=none;fontColor=default;strokeColor=#A8201A;" edge="1" parent="1" source="dCs6q-ByPArtNBq-c7CD-6" target="dCs6q-ByPArtNBq-c7CD-1">
          <mxGeometry width="50" height="50" relative="1" as="geometry">
            <mxPoint x="90" y="160" as="sourcePoint" />
            <mxPoint x="100" y="135" as="targetPoint" />
          </mxGeometry>
        </mxCell>
        <mxCell id="dCs6q-ByPArtNBq-c7CD-15" value="" style="endArrow=none;html=1;rounded=0;exitX=0.733;exitY=0.907;exitDx=0;exitDy=0;exitPerimeter=0;entryX=0;entryY=0;entryDx=0;entryDy=0;labelBackgroundColor=none;fontColor=default;strokeColor=#A8201A;" edge="1" parent="1" source="dCs6q-ByPArtNBq-c7CD-4" target="dCs6q-ByPArtNBq-c7CD-6">
          <mxGeometry width="50" height="50" relative="1" as="geometry">
            <mxPoint x="90" y="160" as="sourcePoint" />
            <mxPoint x="90" y="95" as="targetPoint" />
          </mxGeometry>
        </mxCell>
        <mxCell id="dCs6q-ByPArtNBq-c7CD-16" value="" style="endArrow=none;html=1;rounded=0;exitX=0.5;exitY=0;exitDx=0;exitDy=0;entryX=0.5;entryY=1;entryDx=0;entryDy=0;labelBackgroundColor=none;fontColor=default;strokeColor=#A8201A;" edge="1" parent="1" source="dCs6q-ByPArtNBq-c7CD-6" target="dCs6q-ByPArtNBq-c7CD-5">
          <mxGeometry width="50" height="50" relative="1" as="geometry">
            <mxPoint x="74" y="82" as="sourcePoint" />
            <mxPoint x="89" y="99" as="targetPoint" />
          </mxGeometry>
        </mxCell>
        <mxCell id="dCs6q-ByPArtNBq-c7CD-20" value="" style="endArrow=none;html=1;rounded=0;entryX=0.5;entryY=1;entryDx=0;entryDy=0;exitX=0;exitY=0;exitDx=0;exitDy=0;labelBackgroundColor=none;fontColor=default;strokeColor=#A8201A;" edge="1" parent="1" source="dCs6q-ByPArtNBq-c7CD-1" target="dCs6q-ByPArtNBq-c7CD-7">
          <mxGeometry width="50" height="50" relative="1" as="geometry">
            <mxPoint x="130" y="131" as="sourcePoint" />
            <mxPoint x="550" y="205" as="targetPoint" />
          </mxGeometry>
        </mxCell>
        <mxCell id="dCs6q-ByPArtNBq-c7CD-21" value="" style="endArrow=none;html=1;rounded=0;exitX=0.169;exitY=0.055;exitDx=0;exitDy=0;entryX=0.5;entryY=1;entryDx=0;entryDy=0;exitPerimeter=0;labelBackgroundColor=none;fontColor=default;strokeColor=#A8201A;" edge="1" parent="1" source="dCs6q-ByPArtNBq-c7CD-1" target="dCs6q-ByPArtNBq-c7CD-8">
          <mxGeometry width="50" height="50" relative="1" as="geometry">
            <mxPoint x="500" y="255" as="sourcePoint" />
            <mxPoint x="200" y="105" as="targetPoint" />
          </mxGeometry>
        </mxCell>
        <mxCell id="dCs6q-ByPArtNBq-c7CD-23" value="" style="endArrow=none;html=1;rounded=0;entryX=0;entryY=1;entryDx=0;entryDy=0;exitX=0.382;exitY=0.015;exitDx=0;exitDy=0;exitPerimeter=0;labelBackgroundColor=none;fontColor=default;strokeColor=#A8201A;" edge="1" parent="1" source="dCs6q-ByPArtNBq-c7CD-1" target="dCs6q-ByPArtNBq-c7CD-9">
          <mxGeometry width="50" height="50" relative="1" as="geometry">
            <mxPoint x="500" y="255" as="sourcePoint" />
            <mxPoint x="550" y="205" as="targetPoint" />
          </mxGeometry>
        </mxCell>
        <mxCell id="dCs6q-ByPArtNBq-c7CD-27" value="" style="endArrow=none;html=1;rounded=0;entryX=0.368;entryY=0.9;entryDx=0;entryDy=0;entryPerimeter=0;exitX=0.613;exitY=0.035;exitDx=0;exitDy=0;exitPerimeter=0;labelBackgroundColor=none;fontColor=default;strokeColor=#A8201A;" edge="1" parent="1" source="dCs6q-ByPArtNBq-c7CD-1" target="dCs6q-ByPArtNBq-c7CD-10">
          <mxGeometry width="50" height="50" relative="1" as="geometry">
            <mxPoint x="500" y="255" as="sourcePoint" />
            <mxPoint x="550" y="205" as="targetPoint" />
          </mxGeometry>
        </mxCell>
        <mxCell id="dCs6q-ByPArtNBq-c7CD-29" value="" style="endArrow=none;html=1;rounded=0;entryX=0;entryY=1;entryDx=0;entryDy=0;exitX=0.889;exitY=0;exitDx=0;exitDy=0;exitPerimeter=0;labelBackgroundColor=none;fontColor=default;strokeColor=#A8201A;" edge="1" parent="1" source="dCs6q-ByPArtNBq-c7CD-1" target="dCs6q-ByPArtNBq-c7CD-11">
          <mxGeometry width="50" height="50" relative="1" as="geometry">
            <mxPoint x="210" y="125" as="sourcePoint" />
            <mxPoint x="550" y="205" as="targetPoint" />
          </mxGeometry>
        </mxCell>
        <mxCell id="dCs6q-ByPArtNBq-c7CD-30" value="Phone Number" style="ellipse;whiteSpace=wrap;html=1;labelBackgroundColor=none;fillColor=#FAE5C7;strokeColor=#0F8B8D;fontColor=#143642;" vertex="1" parent="1">
          <mxGeometry x="250" y="105" width="80" height="30" as="geometry" />
        </mxCell>
        <mxCell id="dCs6q-ByPArtNBq-c7CD-31" value="" style="endArrow=none;html=1;rounded=0;entryX=0;entryY=1;entryDx=0;entryDy=0;exitX=1;exitY=0;exitDx=0;exitDy=0;labelBackgroundColor=none;fontColor=default;strokeColor=#A8201A;" edge="1" parent="1" source="dCs6q-ByPArtNBq-c7CD-1" target="dCs6q-ByPArtNBq-c7CD-30">
          <mxGeometry width="50" height="50" relative="1" as="geometry">
            <mxPoint x="500" y="255" as="sourcePoint" />
            <mxPoint x="550" y="205" as="targetPoint" />
          </mxGeometry>
        </mxCell>
        <mxCell id="dCs6q-ByPArtNBq-c7CD-32" value="&lt;font style=&quot;font-size: 18px;&quot;&gt;Floor&lt;/font&gt;" style="rounded=0;whiteSpace=wrap;html=1;labelBackgroundColor=none;fillColor=#FAE5C7;strokeColor=#0F8B8D;fontColor=#143642;" vertex="1" parent="1">
          <mxGeometry x="520" y="162.5" width="70" height="30" as="geometry" />
        </mxCell>
        <mxCell id="dCs6q-ByPArtNBq-c7CD-33" value="Floor Number" style="ellipse;whiteSpace=wrap;html=1;labelBackgroundColor=none;fillColor=#FAE5C7;strokeColor=#0F8B8D;fontColor=#143642;" vertex="1" parent="1">
          <mxGeometry x="460" y="110" width="90" height="37.5" as="geometry" />
        </mxCell>
        <mxCell id="dCs6q-ByPArtNBq-c7CD-34" value="" style="endArrow=none;html=1;rounded=0;labelBackgroundColor=none;fontColor=default;strokeColor=#A8201A;" edge="1" parent="1">
          <mxGeometry width="50" height="50" relative="1" as="geometry">
            <mxPoint x="40" y="165" as="sourcePoint" />
            <mxPoint x="80" y="165" as="targetPoint" />
          </mxGeometry>
        </mxCell>
        <mxCell id="dCs6q-ByPArtNBq-c7CD-35" value="" style="endArrow=none;html=1;rounded=0;labelBackgroundColor=none;fontColor=default;strokeColor=#A8201A;" edge="1" parent="1">
          <mxGeometry width="50" height="50" relative="1" as="geometry">
            <mxPoint x="470" y="140" as="sourcePoint" />
            <mxPoint x="540" y="140" as="targetPoint" />
          </mxGeometry>
        </mxCell>
        <mxCell id="dCs6q-ByPArtNBq-c7CD-36" value="" style="endArrow=none;html=1;rounded=0;entryX=0.582;entryY=1.002;entryDx=0;entryDy=0;entryPerimeter=0;labelBackgroundColor=none;fontColor=default;strokeColor=#A8201A;" edge="1" parent="1" source="dCs6q-ByPArtNBq-c7CD-32" target="dCs6q-ByPArtNBq-c7CD-33">
          <mxGeometry width="50" height="50" relative="1" as="geometry">
            <mxPoint x="430" y="262.5" as="sourcePoint" />
            <mxPoint x="480" y="212.5" as="targetPoint" />
          </mxGeometry>
        </mxCell>
        <mxCell id="dCs6q-ByPArtNBq-c7CD-37" value="Number Of&amp;nbsp; Blocks" style="ellipse;whiteSpace=wrap;html=1;labelBackgroundColor=none;fillColor=#FAE5C7;strokeColor=#0F8B8D;fontColor=#143642;" vertex="1" parent="1">
          <mxGeometry x="550" y="110" width="110" height="32.5" as="geometry" />
        </mxCell>
        <mxCell id="dCs6q-ByPArtNBq-c7CD-38" value="" style="endArrow=none;html=1;rounded=0;entryX=0.344;entryY=0.963;entryDx=0;entryDy=0;entryPerimeter=0;exitX=0.75;exitY=0;exitDx=0;exitDy=0;labelBackgroundColor=none;fontColor=default;strokeColor=#A8201A;" edge="1" parent="1" source="dCs6q-ByPArtNBq-c7CD-32" target="dCs6q-ByPArtNBq-c7CD-37">
          <mxGeometry width="50" height="50" relative="1" as="geometry">
            <mxPoint x="430" y="262.5" as="sourcePoint" />
            <mxPoint x="480" y="212.5" as="targetPoint" />
          </mxGeometry>
        </mxCell>
        <mxCell id="dCs6q-ByPArtNBq-c7CD-39" value="&lt;font style=&quot;font-size: 18px;&quot;&gt;User&lt;/font&gt;" style="rounded=0;whiteSpace=wrap;html=1;labelBackgroundColor=none;fillColor=#FAE5C7;strokeColor=#0F8B8D;fontColor=#143642;" vertex="1" parent="1">
          <mxGeometry x="126.25" y="455.43" width="80" height="40" as="geometry" />
        </mxCell>
        <mxCell id="dCs6q-ByPArtNBq-c7CD-40" value="SSN" style="ellipse;whiteSpace=wrap;html=1;labelBackgroundColor=none;fillColor=#FAE5C7;strokeColor=#0F8B8D;fontColor=#143642;" vertex="1" parent="1">
          <mxGeometry x="23.75" y="445.43" width="65" height="30" as="geometry" />
        </mxCell>
        <mxCell id="dCs6q-ByPArtNBq-c7CD-41" value="" style="endArrow=none;html=1;rounded=0;labelBackgroundColor=none;fontColor=default;strokeColor=#A8201A;" edge="1" parent="1">
          <mxGeometry width="50" height="50" relative="1" as="geometry">
            <mxPoint x="33.75" y="465.43" as="sourcePoint" />
            <mxPoint x="83.75" y="465.43" as="targetPoint" />
          </mxGeometry>
        </mxCell>
        <mxCell id="dCs6q-ByPArtNBq-c7CD-42" value="" style="endArrow=none;html=1;rounded=0;entryX=1;entryY=0.5;entryDx=0;entryDy=0;exitX=0;exitY=0.25;exitDx=0;exitDy=0;labelBackgroundColor=none;fontColor=default;strokeColor=#A8201A;" edge="1" parent="1" source="dCs6q-ByPArtNBq-c7CD-39" target="dCs6q-ByPArtNBq-c7CD-40">
          <mxGeometry width="50" height="50" relative="1" as="geometry">
            <mxPoint x="106.25" y="453.43" as="sourcePoint" />
            <mxPoint x="536.25" y="472.93" as="targetPoint" />
          </mxGeometry>
        </mxCell>
        <mxCell id="dCs6q-ByPArtNBq-c7CD-43" value="Name" style="ellipse;whiteSpace=wrap;html=1;labelBackgroundColor=none;fillColor=#FAE5C7;strokeColor=#0F8B8D;fontColor=#143642;" vertex="1" parent="1">
          <mxGeometry x="31.25" y="485.43" width="55" height="30" as="geometry" />
        </mxCell>
        <mxCell id="dCs6q-ByPArtNBq-c7CD-44" value="Email" style="ellipse;whiteSpace=wrap;html=1;labelBackgroundColor=none;fillColor=#FAE5C7;strokeColor=#0F8B8D;fontColor=#143642;" vertex="1" parent="1">
          <mxGeometry x="66.25" y="515.4300000000001" width="60" height="30" as="geometry" />
        </mxCell>
        <mxCell id="dCs6q-ByPArtNBq-c7CD-45" value="Phones" style="ellipse;whiteSpace=wrap;html=1;labelBackgroundColor=none;fillColor=#FAE5C7;strokeColor=#0F8B8D;fontColor=#143642;" vertex="1" parent="1">
          <mxGeometry x="133.75" y="522.93" width="65" height="30" as="geometry" />
        </mxCell>
        <mxCell id="dCs6q-ByPArtNBq-c7CD-47" value="" style="endArrow=none;html=1;rounded=0;exitX=0;exitY=0.5;exitDx=0;exitDy=0;entryX=1;entryY=0.5;entryDx=0;entryDy=0;labelBackgroundColor=none;fontColor=default;strokeColor=#A8201A;" edge="1" parent="1" source="dCs6q-ByPArtNBq-c7CD-39" target="dCs6q-ByPArtNBq-c7CD-43">
          <mxGeometry width="50" height="50" relative="1" as="geometry">
            <mxPoint x="506.25" y="565.43" as="sourcePoint" />
            <mxPoint x="139.25" y="515.4300000000001" as="targetPoint" />
          </mxGeometry>
        </mxCell>
        <mxCell id="dCs6q-ByPArtNBq-c7CD-48" value="" style="endArrow=none;html=1;rounded=0;exitX=0;exitY=1;exitDx=0;exitDy=0;entryX=0.7;entryY=0.053;entryDx=0;entryDy=0;entryPerimeter=0;labelBackgroundColor=none;fontColor=default;strokeColor=#A8201A;" edge="1" parent="1" source="dCs6q-ByPArtNBq-c7CD-39" target="dCs6q-ByPArtNBq-c7CD-44">
          <mxGeometry width="50" height="50" relative="1" as="geometry">
            <mxPoint x="506.25" y="565.43" as="sourcePoint" />
            <mxPoint x="186.25" y="525.43" as="targetPoint" />
          </mxGeometry>
        </mxCell>
        <mxCell id="dCs6q-ByPArtNBq-c7CD-49" value="" style="endArrow=none;html=1;rounded=0;entryX=0.5;entryY=0;entryDx=0;entryDy=0;labelBackgroundColor=none;fontColor=default;strokeColor=#A8201A;" edge="1" parent="1" source="dCs6q-ByPArtNBq-c7CD-39" target="dCs6q-ByPArtNBq-c7CD-45">
          <mxGeometry width="50" height="50" relative="1" as="geometry">
            <mxPoint x="506.25" y="565.43" as="sourcePoint" />
            <mxPoint x="143.25" y="548.43" as="targetPoint" />
          </mxGeometry>
        </mxCell>
        <mxCell id="dCs6q-ByPArtNBq-c7CD-51" value="&lt;font style=&quot;font-size: 18px;&quot;&gt;Book&lt;/font&gt;" style="rounded=0;whiteSpace=wrap;html=1;labelBackgroundColor=none;fillColor=#FAE5C7;strokeColor=#0F8B8D;fontColor=#143642;" vertex="1" parent="1">
          <mxGeometry x="360.06" y="445" width="80" height="40" as="geometry" />
        </mxCell>
        <mxCell id="dCs6q-ByPArtNBq-c7CD-53" value="ID" style="ellipse;whiteSpace=wrap;html=1;labelBackgroundColor=none;fillColor=#FAE5C7;strokeColor=#0F8B8D;fontColor=#143642;" vertex="1" parent="1">
          <mxGeometry x="350.06" y="385" width="60" height="40" as="geometry" />
        </mxCell>
        <mxCell id="dCs6q-ByPArtNBq-c7CD-54" value="Title" style="ellipse;whiteSpace=wrap;html=1;labelBackgroundColor=none;fillColor=#FAE5C7;strokeColor=#0F8B8D;fontColor=#143642;" vertex="1" parent="1">
          <mxGeometry x="410.06" y="395" width="60" height="30" as="geometry" />
        </mxCell>
        <mxCell id="dCs6q-ByPArtNBq-c7CD-55" value="" style="endArrow=none;html=1;rounded=0;labelBackgroundColor=none;fontColor=default;strokeColor=#A8201A;" edge="1" parent="1">
          <mxGeometry width="50" height="50" relative="1" as="geometry">
            <mxPoint x="360.06" y="414" as="sourcePoint" />
            <mxPoint x="400.06" y="414" as="targetPoint" />
            <Array as="points">
              <mxPoint x="400.06" y="414" />
            </Array>
          </mxGeometry>
        </mxCell>
        <mxCell id="dCs6q-ByPArtNBq-c7CD-56" value="" style="endArrow=none;html=1;rounded=0;entryX=0;entryY=0.25;entryDx=0;entryDy=0;exitX=0.5;exitY=1;exitDx=0;exitDy=0;labelBackgroundColor=none;fontColor=default;strokeColor=#A8201A;" edge="1" parent="1" source="dCs6q-ByPArtNBq-c7CD-53">
          <mxGeometry width="50" height="50" relative="1" as="geometry">
            <mxPoint x="265.06" y="315" as="sourcePoint" />
            <mxPoint x="385.06" y="445" as="targetPoint" />
          </mxGeometry>
        </mxCell>
        <mxCell id="dCs6q-ByPArtNBq-c7CD-57" value="" style="endArrow=none;html=1;rounded=0;entryX=0.75;entryY=0;entryDx=0;entryDy=0;exitX=0.5;exitY=1;exitDx=0;exitDy=0;labelBackgroundColor=none;fontColor=default;strokeColor=#A8201A;" edge="1" parent="1" source="dCs6q-ByPArtNBq-c7CD-54" target="dCs6q-ByPArtNBq-c7CD-51">
          <mxGeometry width="50" height="50" relative="1" as="geometry">
            <mxPoint x="240.06" y="325" as="sourcePoint" />
            <mxPoint x="290.06" y="275" as="targetPoint" />
          </mxGeometry>
        </mxCell>
        <mxCell id="dCs6q-ByPArtNBq-c7CD-58" value="&lt;font style=&quot;font-size: 18px;&quot;&gt;Author&lt;/font&gt;" style="rounded=0;whiteSpace=wrap;html=1;labelBackgroundColor=none;fillColor=#FAE5C7;strokeColor=#0F8B8D;fontColor=#143642;" vertex="1" parent="1">
          <mxGeometry x="255" y="665" width="80" height="40" as="geometry" />
        </mxCell>
        <mxCell id="dCs6q-ByPArtNBq-c7CD-59" value="&lt;font style=&quot;font-size: 18px;&quot;&gt;Publisher&lt;/font&gt;" style="rounded=0;whiteSpace=wrap;html=1;labelBackgroundColor=none;fillColor=#FAE5C7;strokeColor=#0F8B8D;fontColor=#143642;" vertex="1" parent="1">
          <mxGeometry x="470" y="665" width="80" height="40" as="geometry" />
        </mxCell>
        <mxCell id="dCs6q-ByPArtNBq-c7CD-60" value="&lt;font style=&quot;font-size: 18px;&quot;&gt;Category&lt;/font&gt;" style="rounded=0;whiteSpace=wrap;html=1;labelBackgroundColor=none;fillColor=#FAE5C7;strokeColor=#0F8B8D;fontColor=#143642;" vertex="1" parent="1">
          <mxGeometry x="700" y="510" width="80" height="35" as="geometry" />
        </mxCell>
        <mxCell id="dCs6q-ByPArtNBq-c7CD-61" value="ID" style="ellipse;whiteSpace=wrap;html=1;labelBackgroundColor=none;fillColor=#FAE5C7;strokeColor=#0F8B8D;fontColor=#143642;" vertex="1" parent="1">
          <mxGeometry x="220" y="725" width="60" height="30" as="geometry" />
        </mxCell>
        <mxCell id="dCs6q-ByPArtNBq-c7CD-62" value="Name" style="ellipse;whiteSpace=wrap;html=1;labelBackgroundColor=none;fillColor=#FAE5C7;strokeColor=#0F8B8D;fontColor=#143642;" vertex="1" parent="1">
          <mxGeometry x="300" y="725" width="60" height="30" as="geometry" />
        </mxCell>
        <mxCell id="dCs6q-ByPArtNBq-c7CD-63" value="ID" style="ellipse;whiteSpace=wrap;html=1;labelBackgroundColor=none;fillColor=#FAE5C7;strokeColor=#0F8B8D;fontColor=#143642;" vertex="1" parent="1">
          <mxGeometry x="430" y="735" width="60" height="30" as="geometry" />
        </mxCell>
        <mxCell id="dCs6q-ByPArtNBq-c7CD-64" value="Name" style="ellipse;whiteSpace=wrap;html=1;labelBackgroundColor=none;fillColor=#FAE5C7;strokeColor=#0F8B8D;fontColor=#143642;" vertex="1" parent="1">
          <mxGeometry x="530" y="735" width="60" height="30" as="geometry" />
        </mxCell>
        <mxCell id="dCs6q-ByPArtNBq-c7CD-65" value="" style="endArrow=none;html=1;rounded=0;labelBackgroundColor=none;fontColor=default;strokeColor=#A8201A;" edge="1" parent="1">
          <mxGeometry width="50" height="50" relative="1" as="geometry">
            <mxPoint x="270" y="749.5" as="sourcePoint" />
            <mxPoint x="230" y="749.5" as="targetPoint" />
          </mxGeometry>
        </mxCell>
        <mxCell id="dCs6q-ByPArtNBq-c7CD-66" value="" style="endArrow=none;html=1;rounded=0;labelBackgroundColor=none;fontColor=default;strokeColor=#A8201A;" edge="1" parent="1">
          <mxGeometry width="50" height="50" relative="1" as="geometry">
            <mxPoint x="480" y="759.5" as="sourcePoint" />
            <mxPoint x="440" y="759.5" as="targetPoint" />
          </mxGeometry>
        </mxCell>
        <mxCell id="dCs6q-ByPArtNBq-c7CD-67" value="" style="endArrow=none;html=1;rounded=0;entryX=0.25;entryY=1;entryDx=0;entryDy=0;exitX=0.74;exitY=0.04;exitDx=0;exitDy=0;exitPerimeter=0;labelBackgroundColor=none;fontColor=default;strokeColor=#A8201A;" edge="1" parent="1" source="dCs6q-ByPArtNBq-c7CD-61" target="dCs6q-ByPArtNBq-c7CD-58">
          <mxGeometry width="50" height="50" relative="1" as="geometry">
            <mxPoint x="270" y="745" as="sourcePoint" />
            <mxPoint x="320" y="695" as="targetPoint" />
          </mxGeometry>
        </mxCell>
        <mxCell id="dCs6q-ByPArtNBq-c7CD-68" value="" style="endArrow=none;html=1;rounded=0;entryX=0.75;entryY=1;entryDx=0;entryDy=0;exitX=0.5;exitY=0;exitDx=0;exitDy=0;labelBackgroundColor=none;fontColor=default;strokeColor=#A8201A;" edge="1" parent="1" source="dCs6q-ByPArtNBq-c7CD-62" target="dCs6q-ByPArtNBq-c7CD-58">
          <mxGeometry width="50" height="50" relative="1" as="geometry">
            <mxPoint x="270" y="745" as="sourcePoint" />
            <mxPoint x="320" y="695" as="targetPoint" />
            <Array as="points" />
          </mxGeometry>
        </mxCell>
        <mxCell id="dCs6q-ByPArtNBq-c7CD-70" value="" style="endArrow=none;html=1;rounded=0;entryX=0.25;entryY=1;entryDx=0;entryDy=0;exitX=0.74;exitY=0.04;exitDx=0;exitDy=0;exitPerimeter=0;labelBackgroundColor=none;fontColor=default;strokeColor=#A8201A;" edge="1" parent="1" source="dCs6q-ByPArtNBq-c7CD-63" target="dCs6q-ByPArtNBq-c7CD-59">
          <mxGeometry width="50" height="50" relative="1" as="geometry">
            <mxPoint x="280" y="755" as="sourcePoint" />
            <mxPoint x="330" y="705" as="targetPoint" />
          </mxGeometry>
        </mxCell>
        <mxCell id="dCs6q-ByPArtNBq-c7CD-71" value="" style="endArrow=none;html=1;rounded=0;entryX=0.865;entryY=0.96;entryDx=0;entryDy=0;entryPerimeter=0;exitX=0.5;exitY=0;exitDx=0;exitDy=0;labelBackgroundColor=none;fontColor=default;strokeColor=#A8201A;" edge="1" parent="1" source="dCs6q-ByPArtNBq-c7CD-64" target="dCs6q-ByPArtNBq-c7CD-59">
          <mxGeometry width="50" height="50" relative="1" as="geometry">
            <mxPoint x="280" y="755" as="sourcePoint" />
            <mxPoint x="330" y="705" as="targetPoint" />
          </mxGeometry>
        </mxCell>
        <mxCell id="dCs6q-ByPArtNBq-c7CD-72" value="ID" style="ellipse;whiteSpace=wrap;html=1;labelBackgroundColor=none;fillColor=#FAE5C7;strokeColor=#0F8B8D;fontColor=#143642;" vertex="1" parent="1">
          <mxGeometry x="690" y="460.43" width="60" height="30" as="geometry" />
        </mxCell>
        <mxCell id="dCs6q-ByPArtNBq-c7CD-73" value="" style="endArrow=none;html=1;rounded=0;labelBackgroundColor=none;fontColor=default;strokeColor=#A8201A;" edge="1" parent="1">
          <mxGeometry width="50" height="50" relative="1" as="geometry">
            <mxPoint x="700" y="485.43" as="sourcePoint" />
            <mxPoint x="740" y="485.43" as="targetPoint" />
          </mxGeometry>
        </mxCell>
        <mxCell id="dCs6q-ByPArtNBq-c7CD-75" value="" style="endArrow=none;html=1;rounded=0;entryX=0.5;entryY=1;entryDx=0;entryDy=0;exitX=0.25;exitY=0;exitDx=0;exitDy=0;labelBackgroundColor=none;fontColor=default;strokeColor=#A8201A;" edge="1" parent="1" source="dCs6q-ByPArtNBq-c7CD-60" target="dCs6q-ByPArtNBq-c7CD-72">
          <mxGeometry width="50" height="50" relative="1" as="geometry">
            <mxPoint x="500" y="630.43" as="sourcePoint" />
            <mxPoint x="550" y="580.43" as="targetPoint" />
          </mxGeometry>
        </mxCell>
        <mxCell id="dCs6q-ByPArtNBq-c7CD-76" value="Cat_Name" style="ellipse;whiteSpace=wrap;html=1;labelBackgroundColor=none;fillColor=#FAE5C7;strokeColor=#0F8B8D;fontColor=#143642;" vertex="1" parent="1">
          <mxGeometry x="770" y="460.43" width="70" height="30" as="geometry" />
        </mxCell>
        <mxCell id="dCs6q-ByPArtNBq-c7CD-77" value="" style="endArrow=none;html=1;rounded=0;entryX=0.5;entryY=1;entryDx=0;entryDy=0;exitX=0.75;exitY=0;exitDx=0;exitDy=0;labelBackgroundColor=none;fontColor=default;strokeColor=#A8201A;" edge="1" parent="1" source="dCs6q-ByPArtNBq-c7CD-60" target="dCs6q-ByPArtNBq-c7CD-76">
          <mxGeometry width="50" height="50" relative="1" as="geometry">
            <mxPoint x="500" y="630.43" as="sourcePoint" />
            <mxPoint x="550" y="580.43" as="targetPoint" />
          </mxGeometry>
        </mxCell>
        <mxCell id="dCs6q-ByPArtNBq-c7CD-78" value="&lt;font style=&quot;font-size: 18px;&quot;&gt;Shelfs&lt;/font&gt;" style="rounded=0;whiteSpace=wrap;html=1;labelBackgroundColor=none;fillColor=#FAE5C7;strokeColor=#0F8B8D;fontColor=#143642;" vertex="1" parent="1">
          <mxGeometry x="710" y="325" width="70" height="30" as="geometry" />
        </mxCell>
        <mxCell id="dCs6q-ByPArtNBq-c7CD-79" value="Code" style="ellipse;whiteSpace=wrap;html=1;labelBackgroundColor=none;fillColor=#FAE5C7;strokeColor=#0F8B8D;fontColor=#143642;" vertex="1" parent="1">
          <mxGeometry x="740" y="265" width="60" height="30" as="geometry" />
        </mxCell>
        <mxCell id="dCs6q-ByPArtNBq-c7CD-80" value="" style="endArrow=none;html=1;rounded=0;labelBackgroundColor=none;fontColor=default;strokeColor=#A8201A;" edge="1" parent="1">
          <mxGeometry width="50" height="50" relative="1" as="geometry">
            <mxPoint x="750" y="285" as="sourcePoint" />
            <mxPoint x="790" y="285" as="targetPoint" />
          </mxGeometry>
        </mxCell>
        <mxCell id="dCs6q-ByPArtNBq-c7CD-82" value="" style="endArrow=none;html=1;rounded=0;entryX=0.5;entryY=1;entryDx=0;entryDy=0;exitX=0.75;exitY=0;exitDx=0;exitDy=0;labelBackgroundColor=none;fontColor=default;strokeColor=#A8201A;" edge="1" parent="1" source="dCs6q-ByPArtNBq-c7CD-78" target="dCs6q-ByPArtNBq-c7CD-79">
          <mxGeometry width="50" height="50" relative="1" as="geometry">
            <mxPoint x="500" y="295" as="sourcePoint" />
            <mxPoint x="540" y="255" as="targetPoint" />
          </mxGeometry>
        </mxCell>
        <mxCell id="dCs6q-ByPArtNBq-c7CD-84" value="SuperVision" style="rhombus;whiteSpace=wrap;html=1;labelBackgroundColor=none;fillColor=#FAE5C7;strokeColor=#0F8B8D;fontColor=#143642;" vertex="1" parent="1">
          <mxGeometry x="10" y="220" width="90" height="60" as="geometry" />
        </mxCell>
        <mxCell id="dCs6q-ByPArtNBq-c7CD-85" value="" style="endArrow=none;html=1;rounded=0;entryX=0;entryY=1;entryDx=0;entryDy=0;exitX=0.5;exitY=0;exitDx=0;exitDy=0;labelBackgroundColor=none;fontColor=default;strokeColor=#A8201A;" edge="1" parent="1" source="dCs6q-ByPArtNBq-c7CD-84" target="dCs6q-ByPArtNBq-c7CD-1">
          <mxGeometry width="50" height="50" relative="1" as="geometry">
            <mxPoint x="95" y="255" as="sourcePoint" />
            <mxPoint x="145" y="205" as="targetPoint" />
          </mxGeometry>
        </mxCell>
        <mxCell id="dCs6q-ByPArtNBq-c7CD-93" value="" style="shape=link;html=1;rounded=0;exitX=1;exitY=0.5;exitDx=0;exitDy=0;entryX=0.25;entryY=1;entryDx=0;entryDy=0;labelBackgroundColor=none;fontColor=default;strokeColor=#A8201A;" edge="1" parent="1" source="dCs6q-ByPArtNBq-c7CD-84" target="dCs6q-ByPArtNBq-c7CD-1">
          <mxGeometry relative="1" as="geometry">
            <mxPoint x="100" y="234" as="sourcePoint" />
            <mxPoint x="260" y="234" as="targetPoint" />
          </mxGeometry>
        </mxCell>
        <mxCell id="dCs6q-ByPArtNBq-c7CD-94" value="M" style="resizable=0;html=1;whiteSpace=wrap;align=right;verticalAlign=bottom;labelBackgroundColor=none;fillColor=#FAE5C7;strokeColor=#0F8B8D;fontColor=#143642;" connectable="0" vertex="1" parent="dCs6q-ByPArtNBq-c7CD-93">
          <mxGeometry x="1" relative="1" as="geometry">
            <mxPoint x="-12" y="50" as="offset" />
          </mxGeometry>
        </mxCell>
        <mxCell id="dCs6q-ByPArtNBq-c7CD-96" value="1" style="text;html=1;align=center;verticalAlign=middle;resizable=0;points=[];autosize=1;strokeColor=none;fillColor=none;labelBackgroundColor=none;fontColor=#143642;" vertex="1" parent="1">
          <mxGeometry x="85" y="183" width="30" height="30" as="geometry" />
        </mxCell>
        <mxCell id="dCs6q-ByPArtNBq-c7CD-97" value="Supervisor" style="text;html=1;align=center;verticalAlign=middle;resizable=0;points=[];autosize=1;strokeColor=none;fillColor=none;labelBackgroundColor=none;fontColor=#143642;" vertex="1" parent="1">
          <mxGeometry x="15" y="185" width="80" height="30" as="geometry" />
        </mxCell>
        <mxCell id="dCs6q-ByPArtNBq-c7CD-98" value="Supervisee" style="text;html=1;align=center;verticalAlign=middle;resizable=0;points=[];autosize=1;strokeColor=none;fillColor=none;labelBackgroundColor=none;fontColor=#143642;" vertex="1" parent="1">
          <mxGeometry x="85" y="245" width="80" height="30" as="geometry" />
        </mxCell>
        <mxCell id="dCs6q-ByPArtNBq-c7CD-100" value="Manage" style="rhombus;whiteSpace=wrap;html=1;labelBackgroundColor=none;fillColor=#FAE5C7;strokeColor=#0F8B8D;fontColor=#143642;" vertex="1" parent="1">
          <mxGeometry x="355" y="125" width="70" height="50" as="geometry" />
        </mxCell>
        <mxCell id="dCs6q-ByPArtNBq-c7CD-102" value="" style="shape=link;html=1;rounded=0;exitX=1;exitY=0.5;exitDx=0;exitDy=0;entryX=0;entryY=0.25;entryDx=0;entryDy=0;labelBackgroundColor=none;fontColor=default;strokeColor=#A8201A;" edge="1" parent="1" source="dCs6q-ByPArtNBq-c7CD-100" target="dCs6q-ByPArtNBq-c7CD-32">
          <mxGeometry relative="1" as="geometry">
            <mxPoint x="470" y="325" as="sourcePoint" />
            <mxPoint x="630" y="325" as="targetPoint" />
          </mxGeometry>
        </mxCell>
        <mxCell id="dCs6q-ByPArtNBq-c7CD-103" value="M" style="resizable=0;html=1;whiteSpace=wrap;align=right;verticalAlign=bottom;labelBackgroundColor=none;fillColor=#FAE5C7;strokeColor=#0F8B8D;fontColor=#143642;" connectable="0" vertex="1" parent="dCs6q-ByPArtNBq-c7CD-102">
          <mxGeometry x="1" relative="1" as="geometry">
            <mxPoint x="-65" y="7" as="offset" />
          </mxGeometry>
        </mxCell>
        <mxCell id="dCs6q-ByPArtNBq-c7CD-104" value="" style="endArrow=none;html=1;rounded=0;entryX=0;entryY=0.5;entryDx=0;entryDy=0;exitX=1;exitY=0.25;exitDx=0;exitDy=0;labelBackgroundColor=none;fontColor=default;strokeColor=#A8201A;" edge="1" parent="1" source="dCs6q-ByPArtNBq-c7CD-1" target="dCs6q-ByPArtNBq-c7CD-100">
          <mxGeometry width="50" height="50" relative="1" as="geometry">
            <mxPoint x="500" y="355" as="sourcePoint" />
            <mxPoint x="550" y="305" as="targetPoint" />
          </mxGeometry>
        </mxCell>
        <mxCell id="dCs6q-ByPArtNBq-c7CD-105" value="1" style="text;html=1;align=center;verticalAlign=middle;resizable=0;points=[];autosize=1;strokeColor=none;fillColor=none;labelBackgroundColor=none;fontColor=#143642;" vertex="1" parent="1">
          <mxGeometry x="260" y="153" width="30" height="30" as="geometry" />
        </mxCell>
        <mxCell id="dCs6q-ByPArtNBq-c7CD-106" value="Work On" style="rhombus;whiteSpace=wrap;html=1;labelBackgroundColor=none;fillColor=#FAE5C7;strokeColor=#0F8B8D;fontColor=#143642;" vertex="1" parent="1">
          <mxGeometry x="355" y="185" width="70" height="50" as="geometry" />
        </mxCell>
        <mxCell id="dCs6q-ByPArtNBq-c7CD-107" value="Hiring Date" style="ellipse;whiteSpace=wrap;html=1;labelBackgroundColor=none;fillColor=#FAE5C7;strokeColor=#0F8B8D;fontColor=#143642;" vertex="1" parent="1">
          <mxGeometry x="340" y="65" width="100" height="30" as="geometry" />
        </mxCell>
        <mxCell id="dCs6q-ByPArtNBq-c7CD-108" value="" style="endArrow=none;html=1;rounded=0;entryX=0.5;entryY=1;entryDx=0;entryDy=0;exitX=0.5;exitY=0;exitDx=0;exitDy=0;labelBackgroundColor=none;fontColor=default;strokeColor=#A8201A;" edge="1" parent="1" source="dCs6q-ByPArtNBq-c7CD-100" target="dCs6q-ByPArtNBq-c7CD-107">
          <mxGeometry width="50" height="50" relative="1" as="geometry">
            <mxPoint x="520" y="355" as="sourcePoint" />
            <mxPoint x="570" y="305" as="targetPoint" />
          </mxGeometry>
        </mxCell>
        <mxCell id="dCs6q-ByPArtNBq-c7CD-109" value="" style="shape=link;html=1;rounded=0;exitX=1;exitY=0.5;exitDx=0;exitDy=0;entryX=0;entryY=0.75;entryDx=0;entryDy=0;labelBackgroundColor=none;fontColor=default;strokeColor=#A8201A;" edge="1" parent="1" source="dCs6q-ByPArtNBq-c7CD-106" target="dCs6q-ByPArtNBq-c7CD-32">
          <mxGeometry relative="1" as="geometry">
            <mxPoint x="435" y="213" as="sourcePoint" />
            <mxPoint x="530" y="233" as="targetPoint" />
          </mxGeometry>
        </mxCell>
        <mxCell id="dCs6q-ByPArtNBq-c7CD-110" value="1" style="resizable=0;html=1;whiteSpace=wrap;align=right;verticalAlign=bottom;labelBackgroundColor=none;fillColor=#FAE5C7;strokeColor=#0F8B8D;fontColor=#143642;" connectable="0" vertex="1" parent="dCs6q-ByPArtNBq-c7CD-109">
          <mxGeometry x="1" relative="1" as="geometry">
            <mxPoint x="-45" y="35" as="offset" />
          </mxGeometry>
        </mxCell>
        <mxCell id="dCs6q-ByPArtNBq-c7CD-111" value="" style="shape=link;html=1;rounded=0;exitX=1;exitY=0.75;exitDx=0;exitDy=0;entryX=0;entryY=0.5;entryDx=0;entryDy=0;labelBackgroundColor=none;fontColor=default;strokeColor=#A8201A;" edge="1" parent="1" source="dCs6q-ByPArtNBq-c7CD-1" target="dCs6q-ByPArtNBq-c7CD-106">
          <mxGeometry relative="1" as="geometry">
            <mxPoint x="415" y="220" as="sourcePoint" />
            <mxPoint x="510" y="195" as="targetPoint" />
          </mxGeometry>
        </mxCell>
        <mxCell id="dCs6q-ByPArtNBq-c7CD-112" value="M" style="resizable=0;html=1;whiteSpace=wrap;align=right;verticalAlign=bottom;labelBackgroundColor=none;fillColor=#FAE5C7;strokeColor=#0F8B8D;fontColor=#143642;" connectable="0" vertex="1" parent="dCs6q-ByPArtNBq-c7CD-111">
          <mxGeometry x="1" relative="1" as="geometry">
            <mxPoint x="-60" y="10" as="offset" />
          </mxGeometry>
        </mxCell>
        <mxCell id="dCs6q-ByPArtNBq-c7CD-116" value="Borrow Records" style="rhombus;whiteSpace=wrap;html=1;rotation=45;labelBackgroundColor=none;fillColor=#FAE5C7;strokeColor=#0F8B8D;fontColor=#143642;" vertex="1" parent="1">
          <mxGeometry x="180" y="347.59" width="80" height="56.46" as="geometry" />
        </mxCell>
        <mxCell id="dCs6q-ByPArtNBq-c7CD-117" value="" style="shape=link;html=1;rounded=0;entryX=0;entryY=0.5;entryDx=0;entryDy=0;exitX=0.627;exitY=0.99;exitDx=0;exitDy=0;exitPerimeter=0;labelBackgroundColor=none;fontColor=default;strokeColor=#A8201A;" edge="1" parent="1" source="dCs6q-ByPArtNBq-c7CD-1" target="dCs6q-ByPArtNBq-c7CD-116">
          <mxGeometry relative="1" as="geometry">
            <mxPoint x="145" y="275" as="sourcePoint" />
            <mxPoint x="305" y="275" as="targetPoint" />
          </mxGeometry>
        </mxCell>
        <mxCell id="dCs6q-ByPArtNBq-c7CD-118" value="1" style="resizable=0;html=1;whiteSpace=wrap;align=right;verticalAlign=bottom;labelBackgroundColor=none;fillColor=#FAE5C7;strokeColor=#0F8B8D;fontColor=#143642;" connectable="0" vertex="1" parent="dCs6q-ByPArtNBq-c7CD-117">
          <mxGeometry x="1" relative="1" as="geometry">
            <mxPoint x="-17" y="-33" as="offset" />
          </mxGeometry>
        </mxCell>
        <mxCell id="dCs6q-ByPArtNBq-c7CD-119" value="Date_Borrowed" style="ellipse;whiteSpace=wrap;html=1;labelBackgroundColor=none;fillColor=#FAE5C7;strokeColor=#0F8B8D;fontColor=#143642;" vertex="1" parent="1">
          <mxGeometry x="200" y="275" width="100" height="30" as="geometry" />
        </mxCell>
        <mxCell id="dCs6q-ByPArtNBq-c7CD-120" value="Due_Date" style="ellipse;whiteSpace=wrap;html=1;labelBackgroundColor=none;fillColor=#FAE5C7;strokeColor=#0F8B8D;fontColor=#143642;" vertex="1" parent="1">
          <mxGeometry x="260" y="305" width="70" height="30" as="geometry" />
        </mxCell>
        <mxCell id="dCs6q-ByPArtNBq-c7CD-121" value="Charges" style="ellipse;whiteSpace=wrap;html=1;labelBackgroundColor=none;fillColor=#FAE5C7;strokeColor=#0F8B8D;fontColor=#143642;" vertex="1" parent="1">
          <mxGeometry x="300" y="335" width="60" height="30" as="geometry" />
        </mxCell>
        <mxCell id="dCs6q-ByPArtNBq-c7CD-122" value="" style="endArrow=none;html=1;rounded=0;entryX=0.384;entryY=0.947;entryDx=0;entryDy=0;entryPerimeter=0;exitX=0;exitY=0;exitDx=0;exitDy=0;labelBackgroundColor=none;fontColor=default;strokeColor=#A8201A;" edge="1" parent="1" source="dCs6q-ByPArtNBq-c7CD-116" target="dCs6q-ByPArtNBq-c7CD-119">
          <mxGeometry width="50" height="50" relative="1" as="geometry">
            <mxPoint x="500" y="455" as="sourcePoint" />
            <mxPoint x="550" y="405" as="targetPoint" />
          </mxGeometry>
        </mxCell>
        <mxCell id="dCs6q-ByPArtNBq-c7CD-123" value="" style="endArrow=none;html=1;rounded=0;entryX=0;entryY=1;entryDx=0;entryDy=0;labelBackgroundColor=none;fontColor=default;strokeColor=#A8201A;" edge="1" parent="1" target="dCs6q-ByPArtNBq-c7CD-120">
          <mxGeometry width="50" height="50" relative="1" as="geometry">
            <mxPoint x="240" y="355" as="sourcePoint" />
            <mxPoint x="248" y="313" as="targetPoint" />
          </mxGeometry>
        </mxCell>
        <mxCell id="dCs6q-ByPArtNBq-c7CD-124" value="" style="endArrow=none;html=1;rounded=0;entryX=0;entryY=0.5;entryDx=0;entryDy=0;exitX=1;exitY=0;exitDx=0;exitDy=0;labelBackgroundColor=none;fontColor=default;strokeColor=#A8201A;" edge="1" parent="1" source="dCs6q-ByPArtNBq-c7CD-116" target="dCs6q-ByPArtNBq-c7CD-121">
          <mxGeometry width="50" height="50" relative="1" as="geometry">
            <mxPoint x="250" y="365" as="sourcePoint" />
            <mxPoint x="280" y="341" as="targetPoint" />
          </mxGeometry>
        </mxCell>
        <mxCell id="dCs6q-ByPArtNBq-c7CD-125" value="" style="shape=link;html=1;rounded=0;exitX=1;exitY=0.5;exitDx=0;exitDy=0;entryX=0;entryY=0;entryDx=0;entryDy=0;labelBackgroundColor=none;fontColor=default;strokeColor=#A8201A;" edge="1" parent="1" source="dCs6q-ByPArtNBq-c7CD-116" target="dCs6q-ByPArtNBq-c7CD-51">
          <mxGeometry relative="1" as="geometry">
            <mxPoint x="450" y="425" as="sourcePoint" />
            <mxPoint x="610" y="425" as="targetPoint" />
          </mxGeometry>
        </mxCell>
        <mxCell id="dCs6q-ByPArtNBq-c7CD-126" value="M" style="resizable=0;html=1;whiteSpace=wrap;align=right;verticalAlign=bottom;labelBackgroundColor=none;fillColor=#FAE5C7;strokeColor=#0F8B8D;fontColor=#143642;" connectable="0" vertex="1" parent="dCs6q-ByPArtNBq-c7CD-125">
          <mxGeometry x="1" relative="1" as="geometry">
            <mxPoint x="-30" y="-30" as="offset" />
          </mxGeometry>
        </mxCell>
        <mxCell id="dCs6q-ByPArtNBq-c7CD-127" value="" style="shape=link;html=1;rounded=0;exitX=0.5;exitY=1;exitDx=0;exitDy=0;entryX=0.5;entryY=0;entryDx=0;entryDy=0;labelBackgroundColor=none;fontColor=default;strokeColor=#A8201A;" edge="1" parent="1" source="dCs6q-ByPArtNBq-c7CD-116" target="dCs6q-ByPArtNBq-c7CD-39">
          <mxGeometry relative="1" as="geometry">
            <mxPoint x="450" y="425" as="sourcePoint" />
            <mxPoint x="200" y="405" as="targetPoint" />
          </mxGeometry>
        </mxCell>
        <mxCell id="dCs6q-ByPArtNBq-c7CD-128" value="M" style="resizable=0;html=1;whiteSpace=wrap;align=right;verticalAlign=bottom;labelBackgroundColor=none;fillColor=#FAE5C7;strokeColor=#0F8B8D;fontColor=#143642;" connectable="0" vertex="1" parent="dCs6q-ByPArtNBq-c7CD-127">
          <mxGeometry x="1" relative="1" as="geometry">
            <mxPoint y="-30" as="offset" />
          </mxGeometry>
        </mxCell>
        <mxCell id="dCs6q-ByPArtNBq-c7CD-129" value="Have" style="rhombus;whiteSpace=wrap;html=1;rotation=15;labelBackgroundColor=none;fillColor=#FAE5C7;strokeColor=#0F8B8D;fontColor=#143642;" vertex="1" parent="1">
          <mxGeometry x="285" y="545" width="70" height="50" as="geometry" />
        </mxCell>
        <mxCell id="dCs6q-ByPArtNBq-c7CD-130" value="" style="endArrow=none;html=1;rounded=0;entryX=0;entryY=1;entryDx=0;entryDy=0;exitX=0.5;exitY=0;exitDx=0;exitDy=0;labelBackgroundColor=none;fontColor=default;strokeColor=#A8201A;" edge="1" parent="1" source="dCs6q-ByPArtNBq-c7CD-129" target="dCs6q-ByPArtNBq-c7CD-51">
          <mxGeometry relative="1" as="geometry">
            <mxPoint x="450" y="625" as="sourcePoint" />
            <mxPoint x="610" y="625" as="targetPoint" />
          </mxGeometry>
        </mxCell>
        <mxCell id="dCs6q-ByPArtNBq-c7CD-131" value="M" style="resizable=0;html=1;whiteSpace=wrap;align=right;verticalAlign=bottom;labelBackgroundColor=none;fillColor=#FAE5C7;strokeColor=#0F8B8D;fontColor=#143642;" connectable="0" vertex="1" parent="dCs6q-ByPArtNBq-c7CD-130">
          <mxGeometry x="1" relative="1" as="geometry">
            <mxPoint x="-25" y="30" as="offset" />
          </mxGeometry>
        </mxCell>
        <mxCell id="dCs6q-ByPArtNBq-c7CD-132" value="" style="endArrow=none;html=1;rounded=0;exitX=0.5;exitY=0;exitDx=0;exitDy=0;entryX=0.5;entryY=1;entryDx=0;entryDy=0;labelBackgroundColor=none;fontColor=default;strokeColor=#A8201A;" edge="1" parent="1" source="dCs6q-ByPArtNBq-c7CD-58" target="dCs6q-ByPArtNBq-c7CD-129">
          <mxGeometry relative="1" as="geometry">
            <mxPoint x="296.53" y="665" as="sourcePoint" />
            <mxPoint x="330" y="605" as="targetPoint" />
          </mxGeometry>
        </mxCell>
        <mxCell id="dCs6q-ByPArtNBq-c7CD-133" value="M" style="resizable=0;html=1;whiteSpace=wrap;align=right;verticalAlign=bottom;labelBackgroundColor=none;fillColor=#FAE5C7;strokeColor=#0F8B8D;fontColor=#143642;" connectable="0" vertex="1" parent="dCs6q-ByPArtNBq-c7CD-132">
          <mxGeometry x="1" relative="1" as="geometry">
            <mxPoint x="-18" y="30" as="offset" />
          </mxGeometry>
        </mxCell>
        <mxCell id="dCs6q-ByPArtNBq-c7CD-134" value="Puplish" style="rhombus;whiteSpace=wrap;html=1;rotation=-20;labelBackgroundColor=none;fillColor=#FAE5C7;strokeColor=#0F8B8D;fontColor=#143642;" vertex="1" parent="1">
          <mxGeometry x="425" y="545.43" width="70" height="50" as="geometry" />
        </mxCell>
        <mxCell id="dCs6q-ByPArtNBq-c7CD-137" value="" style="endArrow=none;html=1;rounded=0;entryX=0.5;entryY=1;entryDx=0;entryDy=0;exitX=0.25;exitY=0;exitDx=0;exitDy=0;labelBackgroundColor=none;fontColor=default;strokeColor=#A8201A;" edge="1" parent="1" source="dCs6q-ByPArtNBq-c7CD-59" target="dCs6q-ByPArtNBq-c7CD-134">
          <mxGeometry relative="1" as="geometry">
            <mxPoint x="450" y="545" as="sourcePoint" />
            <mxPoint x="370" y="495" as="targetPoint" />
          </mxGeometry>
        </mxCell>
        <mxCell id="dCs6q-ByPArtNBq-c7CD-138" value="1" style="resizable=0;html=1;whiteSpace=wrap;align=right;verticalAlign=bottom;labelBackgroundColor=none;fillColor=#FAE5C7;strokeColor=#0F8B8D;fontColor=#143642;" connectable="0" vertex="1" parent="dCs6q-ByPArtNBq-c7CD-137">
          <mxGeometry x="1" relative="1" as="geometry">
            <mxPoint x="5" y="45" as="offset" />
          </mxGeometry>
        </mxCell>
        <mxCell id="dCs6q-ByPArtNBq-c7CD-139" value="" style="shape=link;html=1;rounded=0;entryX=0.75;entryY=1;entryDx=0;entryDy=0;exitX=0.5;exitY=0;exitDx=0;exitDy=0;labelBackgroundColor=none;fontColor=default;strokeColor=#A8201A;" edge="1" parent="1" source="dCs6q-ByPArtNBq-c7CD-134" target="dCs6q-ByPArtNBq-c7CD-51">
          <mxGeometry relative="1" as="geometry">
            <mxPoint x="450" y="725" as="sourcePoint" />
            <mxPoint x="610" y="725" as="targetPoint" />
          </mxGeometry>
        </mxCell>
        <mxCell id="dCs6q-ByPArtNBq-c7CD-140" value="M" style="resizable=0;html=1;whiteSpace=wrap;align=right;verticalAlign=bottom;labelBackgroundColor=none;fillColor=#FAE5C7;strokeColor=#0F8B8D;fontColor=#143642;" connectable="0" vertex="1" parent="dCs6q-ByPArtNBq-c7CD-139">
          <mxGeometry x="1" relative="1" as="geometry">
            <mxPoint x="5" y="53" as="offset" />
          </mxGeometry>
        </mxCell>
        <mxCell id="dCs6q-ByPArtNBq-c7CD-141" value="Classified" style="rhombus;whiteSpace=wrap;html=1;rotation=15;labelBackgroundColor=none;fillColor=#FAE5C7;strokeColor=#0F8B8D;fontColor=#143642;" vertex="1" parent="1">
          <mxGeometry x="530" y="490.43" width="80" height="50" as="geometry" />
        </mxCell>
        <mxCell id="dCs6q-ByPArtNBq-c7CD-149" value="Assigned" style="rhombus;whiteSpace=wrap;html=1;rotation=-15;labelBackgroundColor=none;fillColor=#FAE5C7;strokeColor=#0F8B8D;fontColor=#143642;" vertex="1" parent="1">
          <mxGeometry x="560" y="350.82" width="68.66" height="50" as="geometry" />
        </mxCell>
        <mxCell id="dCs6q-ByPArtNBq-c7CD-150" value="" style="endArrow=none;html=1;rounded=0;entryX=0;entryY=1;entryDx=0;entryDy=0;exitX=1;exitY=0.5;exitDx=0;exitDy=0;labelBackgroundColor=none;fontColor=default;strokeColor=#A8201A;" edge="1" parent="1" source="dCs6q-ByPArtNBq-c7CD-149" target="dCs6q-ByPArtNBq-c7CD-78">
          <mxGeometry relative="1" as="geometry">
            <mxPoint x="450" y="225" as="sourcePoint" />
            <mxPoint x="610" y="225" as="targetPoint" />
          </mxGeometry>
        </mxCell>
        <mxCell id="dCs6q-ByPArtNBq-c7CD-151" value="1" style="resizable=0;html=1;whiteSpace=wrap;align=right;verticalAlign=bottom;labelBackgroundColor=none;fillColor=#FAE5C7;strokeColor=#0F8B8D;fontColor=#143642;" connectable="0" vertex="1" parent="dCs6q-ByPArtNBq-c7CD-150">
          <mxGeometry x="1" relative="1" as="geometry">
            <mxPoint x="-40" as="offset" />
          </mxGeometry>
        </mxCell>
        <mxCell id="dCs6q-ByPArtNBq-c7CD-159" value="Located" style="rhombus;whiteSpace=wrap;html=1;rotation=45;labelBackgroundColor=none;fillColor=#FAE5C7;strokeColor=#0F8B8D;fontColor=#143642;" vertex="1" parent="1">
          <mxGeometry x="600" y="235" width="68.66" height="50" as="geometry" />
        </mxCell>
        <mxCell id="dCs6q-ByPArtNBq-c7CD-163" value="" style="shape=link;html=1;rounded=0;entryX=0;entryY=0.5;entryDx=0;entryDy=0;labelBackgroundColor=none;fontColor=default;strokeColor=#A8201A;" edge="1" parent="1" target="dCs6q-ByPArtNBq-c7CD-149">
          <mxGeometry relative="1" as="geometry">
            <mxPoint x="440" y="445" as="sourcePoint" />
            <mxPoint x="551" y="490" as="targetPoint" />
          </mxGeometry>
        </mxCell>
        <mxCell id="dCs6q-ByPArtNBq-c7CD-164" value="M" style="resizable=0;html=1;whiteSpace=wrap;align=right;verticalAlign=bottom;labelBackgroundColor=none;fillColor=#FAE5C7;strokeColor=#0F8B8D;fontColor=#143642;" connectable="0" vertex="1" parent="dCs6q-ByPArtNBq-c7CD-163">
          <mxGeometry x="1" relative="1" as="geometry">
            <mxPoint x="-41" y="10" as="offset" />
          </mxGeometry>
        </mxCell>
        <mxCell id="dCs6q-ByPArtNBq-c7CD-167" value="" style="shape=link;html=1;rounded=0;exitX=1;exitY=1;exitDx=0;exitDy=0;entryX=0;entryY=0.5;entryDx=0;entryDy=0;labelBackgroundColor=none;fontColor=default;strokeColor=#A8201A;" edge="1" parent="1" source="dCs6q-ByPArtNBq-c7CD-32" target="dCs6q-ByPArtNBq-c7CD-159">
          <mxGeometry relative="1" as="geometry">
            <mxPoint x="450" y="425" as="sourcePoint" />
            <mxPoint x="610" y="425" as="targetPoint" />
          </mxGeometry>
        </mxCell>
        <mxCell id="dCs6q-ByPArtNBq-c7CD-168" value="1" style="resizable=0;html=1;whiteSpace=wrap;align=right;verticalAlign=bottom;labelBackgroundColor=none;fillColor=#FAE5C7;strokeColor=#0F8B8D;fontColor=#143642;" connectable="0" vertex="1" parent="dCs6q-ByPArtNBq-c7CD-167">
          <mxGeometry x="1" relative="1" as="geometry">
            <mxPoint x="10" y="-21" as="offset" />
          </mxGeometry>
        </mxCell>
        <mxCell id="dCs6q-ByPArtNBq-c7CD-169" value="" style="shape=link;html=1;rounded=0;exitX=1;exitY=0.5;exitDx=0;exitDy=0;entryX=0;entryY=0;entryDx=0;entryDy=0;labelBackgroundColor=none;fontColor=default;strokeColor=#A8201A;" edge="1" parent="1" source="dCs6q-ByPArtNBq-c7CD-159" target="dCs6q-ByPArtNBq-c7CD-78">
          <mxGeometry relative="1" as="geometry">
            <mxPoint x="570" y="305" as="sourcePoint" />
            <mxPoint x="671" y="320" as="targetPoint" />
          </mxGeometry>
        </mxCell>
        <mxCell id="dCs6q-ByPArtNBq-c7CD-170" value="M" style="resizable=0;html=1;whiteSpace=wrap;align=right;verticalAlign=bottom;labelBackgroundColor=none;fillColor=#FAE5C7;strokeColor=#0F8B8D;fontColor=#143642;" connectable="0" vertex="1" parent="dCs6q-ByPArtNBq-c7CD-169">
          <mxGeometry x="1" relative="1" as="geometry">
            <mxPoint x="-10" y="-30" as="offset" />
          </mxGeometry>
        </mxCell>
        <mxCell id="ch1PR7GmA6hoUtoFIZOK-3" value="" style="shape=link;html=1;rounded=0;exitX=1;exitY=0.75;exitDx=0;exitDy=0;entryX=0;entryY=0.5;entryDx=0;entryDy=0;labelBackgroundColor=none;fontColor=default;strokeColor=#A8201A;" edge="1" parent="1" source="dCs6q-ByPArtNBq-c7CD-51" target="dCs6q-ByPArtNBq-c7CD-141">
          <mxGeometry relative="1" as="geometry">
            <mxPoint x="440.05999999999995" y="522.93" as="sourcePoint" />
            <mxPoint x="610" y="552.93" as="targetPoint" />
          </mxGeometry>
        </mxCell>
        <mxCell id="ch1PR7GmA6hoUtoFIZOK-4" value="M" style="resizable=0;html=1;whiteSpace=wrap;align=right;verticalAlign=bottom;labelBackgroundColor=none;fillColor=#FAE5C7;strokeColor=#0F8B8D;fontColor=#143642;" connectable="0" vertex="1" parent="ch1PR7GmA6hoUtoFIZOK-3">
          <mxGeometry x="1" relative="1" as="geometry">
            <mxPoint x="-17" y="-15" as="offset" />
          </mxGeometry>
        </mxCell>
        <mxCell id="ch1PR7GmA6hoUtoFIZOK-5" value="" style="endArrow=none;html=1;rounded=0;entryX=0;entryY=0.5;entryDx=0;entryDy=0;exitX=1;exitY=0.5;exitDx=0;exitDy=0;labelBackgroundColor=none;fontColor=default;strokeColor=#A8201A;" edge="1" parent="1" source="dCs6q-ByPArtNBq-c7CD-141" target="dCs6q-ByPArtNBq-c7CD-60">
          <mxGeometry relative="1" as="geometry">
            <mxPoint x="450" y="495" as="sourcePoint" />
            <mxPoint x="610" y="495" as="targetPoint" />
          </mxGeometry>
        </mxCell>
        <mxCell id="ch1PR7GmA6hoUtoFIZOK-6" value="1" style="resizable=0;html=1;whiteSpace=wrap;align=right;verticalAlign=bottom;labelBackgroundColor=none;fillColor=#FAE5C7;strokeColor=#0F8B8D;fontColor=#143642;" connectable="0" vertex="1" parent="ch1PR7GmA6hoUtoFIZOK-5">
          <mxGeometry x="1" relative="1" as="geometry">
            <mxPoint x="-41" y="-17" as="offset" />
          </mxGeometry>
        </mxCell>
      </root>
    </mxGraphModel>
  </diagram>
  <diagram id="cQBqfA1AjnU5okLXccWK" name="Library Mapping">
    <mxGraphModel dx="1290" dy="629" grid="1" gridSize="10" guides="1" tooltips="1" connect="1" arrows="1" fold="1" page="1" pageScale="1" pageWidth="850" pageHeight="1100" math="0" shadow="0">
      <root>
        <mxCell id="0" />
        <mxCell id="1" parent="0" />
        <mxCell id="NrLQ_2ZnloRHoBe45e5q-13" value="" style="shape=table;startSize=0;container=1;collapsible=0;childLayout=tableLayout;fontFamily=Helvetica;fontSize=12;labelBackgroundColor=none;" vertex="1" parent="1">
          <mxGeometry x="50" y="80" width="680" height="40" as="geometry" />
        </mxCell>
        <mxCell id="NrLQ_2ZnloRHoBe45e5q-14" value="" style="shape=tableRow;horizontal=0;startSize=0;swimlaneHead=0;swimlaneBody=0;top=0;left=0;bottom=0;right=0;collapsible=0;dropTarget=0;fillColor=none;points=[[0,0.5],[1,0.5]];portConstraint=eastwest;fontFamily=Helvetica;fontSize=12;labelBackgroundColor=none;" vertex="1" parent="NrLQ_2ZnloRHoBe45e5q-13">
          <mxGeometry width="680" height="40" as="geometry" />
        </mxCell>
        <mxCell id="NrLQ_2ZnloRHoBe45e5q-15" value="Emp_Id" style="shape=partialRectangle;html=1;whiteSpace=wrap;connectable=0;overflow=hidden;fillColor=none;top=0;left=0;bottom=0;right=0;pointerEvents=1;fontFamily=Helvetica;fontSize=12;startSize=0;labelBackgroundColor=none;" vertex="1" parent="NrLQ_2ZnloRHoBe45e5q-14">
          <mxGeometry width="60" height="40" as="geometry">
            <mxRectangle width="60" height="40" as="alternateBounds" />
          </mxGeometry>
        </mxCell>
        <mxCell id="NrLQ_2ZnloRHoBe45e5q-16" value="Fname" style="shape=partialRectangle;html=1;whiteSpace=wrap;connectable=0;overflow=hidden;fillColor=none;top=0;left=0;bottom=0;right=0;pointerEvents=1;fontFamily=Helvetica;fontSize=12;startSize=0;labelBackgroundColor=none;" vertex="1" parent="NrLQ_2ZnloRHoBe45e5q-14">
          <mxGeometry x="60" width="50" height="40" as="geometry">
            <mxRectangle width="50" height="40" as="alternateBounds" />
          </mxGeometry>
        </mxCell>
        <mxCell id="NrLQ_2ZnloRHoBe45e5q-17" value="Lname" style="shape=partialRectangle;html=1;whiteSpace=wrap;connectable=0;overflow=hidden;fillColor=none;top=0;left=0;bottom=0;right=0;pointerEvents=1;fontFamily=Helvetica;fontSize=12;startSize=0;labelBackgroundColor=none;" vertex="1" parent="NrLQ_2ZnloRHoBe45e5q-14">
          <mxGeometry x="110" width="50" height="40" as="geometry">
            <mxRectangle width="50" height="40" as="alternateBounds" />
          </mxGeometry>
        </mxCell>
        <mxCell id="NrLQ_2ZnloRHoBe45e5q-18" value="Email" style="shape=partialRectangle;html=1;whiteSpace=wrap;connectable=0;overflow=hidden;fillColor=none;top=0;left=0;bottom=0;right=0;pointerEvents=1;fontFamily=Helvetica;fontSize=12;startSize=0;labelBackgroundColor=none;" vertex="1" parent="NrLQ_2ZnloRHoBe45e5q-14">
          <mxGeometry x="160" width="40" height="40" as="geometry">
            <mxRectangle width="40" height="40" as="alternateBounds" />
          </mxGeometry>
        </mxCell>
        <mxCell id="NrLQ_2ZnloRHoBe45e5q-19" value="Salary" style="shape=partialRectangle;html=1;whiteSpace=wrap;connectable=0;overflow=hidden;fillColor=none;top=0;left=0;bottom=0;right=0;pointerEvents=1;fontFamily=Helvetica;fontSize=12;startSize=0;labelBackgroundColor=none;" vertex="1" parent="NrLQ_2ZnloRHoBe45e5q-14">
          <mxGeometry x="200" width="50" height="40" as="geometry">
            <mxRectangle width="50" height="40" as="alternateBounds" />
          </mxGeometry>
        </mxCell>
        <mxCell id="NrLQ_2ZnloRHoBe45e5q-20" value="DateOfBirth" style="shape=partialRectangle;html=1;whiteSpace=wrap;connectable=0;overflow=hidden;fillColor=none;top=0;left=0;bottom=0;right=0;pointerEvents=1;fontFamily=Helvetica;fontSize=12;startSize=0;labelBackgroundColor=none;" vertex="1" parent="NrLQ_2ZnloRHoBe45e5q-14">
          <mxGeometry x="250" width="70" height="40" as="geometry">
            <mxRectangle width="70" height="40" as="alternateBounds" />
          </mxGeometry>
        </mxCell>
        <mxCell id="NrLQ_2ZnloRHoBe45e5q-21" value="Bounus" style="shape=partialRectangle;html=1;whiteSpace=wrap;connectable=0;overflow=hidden;fillColor=none;top=0;left=0;bottom=0;right=0;pointerEvents=1;fontFamily=Helvetica;fontSize=12;startSize=0;labelBackgroundColor=none;" vertex="1" parent="NrLQ_2ZnloRHoBe45e5q-14">
          <mxGeometry x="320" width="50" height="40" as="geometry">
            <mxRectangle width="50" height="40" as="alternateBounds" />
          </mxGeometry>
        </mxCell>
        <mxCell id="NrLQ_2ZnloRHoBe45e5q-22" value="Address" style="shape=partialRectangle;html=1;whiteSpace=wrap;connectable=0;overflow=hidden;fillColor=none;top=0;left=0;bottom=0;right=0;pointerEvents=1;fontFamily=Helvetica;fontSize=12;startSize=0;labelBackgroundColor=none;" vertex="1" parent="NrLQ_2ZnloRHoBe45e5q-14">
          <mxGeometry x="370" width="60" height="40" as="geometry">
            <mxRectangle width="60" height="40" as="alternateBounds" />
          </mxGeometry>
        </mxCell>
        <mxCell id="NrLQ_2ZnloRHoBe45e5q-23" value="PhoneNumber" style="shape=partialRectangle;html=1;whiteSpace=wrap;connectable=0;overflow=hidden;fillColor=none;top=0;left=0;bottom=0;right=0;pointerEvents=1;fontFamily=Helvetica;fontSize=12;startSize=0;labelBackgroundColor=none;" vertex="1" parent="NrLQ_2ZnloRHoBe45e5q-14">
          <mxGeometry x="430" width="90" height="40" as="geometry">
            <mxRectangle width="90" height="40" as="alternateBounds" />
          </mxGeometry>
        </mxCell>
        <mxCell id="NrLQ_2ZnloRHoBe45e5q-24" value="Supper_Id" style="shape=partialRectangle;html=1;whiteSpace=wrap;connectable=0;overflow=hidden;fillColor=none;top=0;left=0;bottom=0;right=0;pointerEvents=1;fontFamily=Helvetica;fontSize=12;startSize=0;labelBackgroundColor=none;" vertex="1" parent="NrLQ_2ZnloRHoBe45e5q-14">
          <mxGeometry x="520" width="80" height="40" as="geometry">
            <mxRectangle width="80" height="40" as="alternateBounds" />
          </mxGeometry>
        </mxCell>
        <mxCell id="mrGNMKnMD3yQpdYrmXUk-45" value="FloorNumber" style="shape=partialRectangle;html=1;whiteSpace=wrap;connectable=0;overflow=hidden;fillColor=none;top=0;left=0;bottom=0;right=0;pointerEvents=1;fontFamily=Helvetica;fontSize=12;startSize=0;labelBackgroundColor=none;" vertex="1" parent="NrLQ_2ZnloRHoBe45e5q-14">
          <mxGeometry x="600" width="80" height="40" as="geometry">
            <mxRectangle width="80" height="40" as="alternateBounds" />
          </mxGeometry>
        </mxCell>
        <mxCell id="mrGNMKnMD3yQpdYrmXUk-1" value="&lt;font style=&quot;font-size: 14px;&quot;&gt;Employee&lt;/font&gt;" style="text;html=1;align=center;verticalAlign=middle;resizable=0;points=[];autosize=1;strokeColor=none;fillColor=none;fontSize=12;fontFamily=Helvetica;labelBackgroundColor=none;" vertex="1" parent="1">
          <mxGeometry x="40" y="50" width="90" height="30" as="geometry" />
        </mxCell>
        <mxCell id="mrGNMKnMD3yQpdYrmXUk-2" value="" style="endArrow=none;html=1;rounded=0;fontFamily=Helvetica;fontSize=12;fontColor=default;startSize=0;labelBackgroundColor=none;strokeColor=#CC0000;" edge="1" parent="1">
          <mxGeometry width="50" height="50" relative="1" as="geometry">
            <mxPoint x="60" y="110" as="sourcePoint" />
            <mxPoint x="100" y="110" as="targetPoint" />
          </mxGeometry>
        </mxCell>
        <mxCell id="mrGNMKnMD3yQpdYrmXUk-3" value="" style="curved=1;endArrow=classic;html=1;rounded=0;fontFamily=Helvetica;fontSize=12;fontColor=default;startSize=0;labelBackgroundColor=none;" edge="1" parent="1">
          <mxGeometry width="50" height="50" relative="1" as="geometry">
            <mxPoint x="600" y="80" as="sourcePoint" />
            <mxPoint x="90" y="80" as="targetPoint" />
            <Array as="points">
              <mxPoint x="570" y="50" />
            </Array>
          </mxGeometry>
        </mxCell>
        <mxCell id="mrGNMKnMD3yQpdYrmXUk-4" value="" style="endArrow=none;dashed=1;html=1;rounded=0;fontFamily=Helvetica;fontSize=12;fontColor=default;startSize=0;labelBackgroundColor=none;strokeColor=#CC0000;" edge="1" parent="1">
          <mxGeometry width="50" height="50" relative="1" as="geometry">
            <mxPoint x="580" y="110" as="sourcePoint" />
            <mxPoint x="640" y="110" as="targetPoint" />
          </mxGeometry>
        </mxCell>
        <mxCell id="mrGNMKnMD3yQpdYrmXUk-16" value="&lt;font style=&quot;font-size: 14px;&quot;&gt;User&lt;/font&gt;" style="text;html=1;align=center;verticalAlign=middle;resizable=0;points=[];autosize=1;strokeColor=none;fillColor=none;labelBackgroundColor=none;" vertex="1" parent="1">
          <mxGeometry x="70" y="430" width="50" height="30" as="geometry" />
        </mxCell>
        <mxCell id="mrGNMKnMD3yQpdYrmXUk-18" value="" style="shape=table;startSize=0;container=1;collapsible=0;childLayout=tableLayout;labelBackgroundColor=none;" vertex="1" parent="1">
          <mxGeometry x="70" y="466" width="180" height="37" as="geometry" />
        </mxCell>
        <mxCell id="mrGNMKnMD3yQpdYrmXUk-19" value="" style="shape=tableRow;horizontal=0;startSize=0;swimlaneHead=0;swimlaneBody=0;top=0;left=0;bottom=0;right=0;collapsible=0;dropTarget=0;fillColor=none;points=[[0,0.5],[1,0.5]];portConstraint=eastwest;labelBackgroundColor=none;" vertex="1" parent="mrGNMKnMD3yQpdYrmXUk-18">
          <mxGeometry width="180" height="37" as="geometry" />
        </mxCell>
        <mxCell id="mrGNMKnMD3yQpdYrmXUk-20" value="SSN" style="shape=partialRectangle;html=1;whiteSpace=wrap;connectable=0;overflow=hidden;fillColor=none;top=0;left=0;bottom=0;right=0;pointerEvents=1;labelBackgroundColor=none;" vertex="1" parent="mrGNMKnMD3yQpdYrmXUk-19">
          <mxGeometry width="60" height="37" as="geometry">
            <mxRectangle width="60" height="37" as="alternateBounds" />
          </mxGeometry>
        </mxCell>
        <mxCell id="mrGNMKnMD3yQpdYrmXUk-21" value="Name" style="shape=partialRectangle;html=1;whiteSpace=wrap;connectable=0;overflow=hidden;fillColor=none;top=0;left=0;bottom=0;right=0;pointerEvents=1;labelBackgroundColor=none;" vertex="1" parent="mrGNMKnMD3yQpdYrmXUk-19">
          <mxGeometry x="60" width="60" height="37" as="geometry">
            <mxRectangle width="60" height="37" as="alternateBounds" />
          </mxGeometry>
        </mxCell>
        <mxCell id="mrGNMKnMD3yQpdYrmXUk-22" value="Email" style="shape=partialRectangle;html=1;whiteSpace=wrap;connectable=0;overflow=hidden;fillColor=none;top=0;left=0;bottom=0;right=0;pointerEvents=1;labelBackgroundColor=none;" vertex="1" parent="mrGNMKnMD3yQpdYrmXUk-19">
          <mxGeometry x="120" width="60" height="37" as="geometry">
            <mxRectangle width="60" height="37" as="alternateBounds" />
          </mxGeometry>
        </mxCell>
        <mxCell id="mrGNMKnMD3yQpdYrmXUk-23" value="" style="shape=table;startSize=0;container=1;collapsible=0;childLayout=tableLayout;" vertex="1" parent="1">
          <mxGeometry x="70" y="563" width="180" height="40" as="geometry" />
        </mxCell>
        <mxCell id="mrGNMKnMD3yQpdYrmXUk-24" value="" style="shape=tableRow;horizontal=0;startSize=0;swimlaneHead=0;swimlaneBody=0;strokeColor=inherit;top=0;left=0;bottom=0;right=0;collapsible=0;dropTarget=0;fillColor=none;points=[[0,0.5],[1,0.5]];portConstraint=eastwest;" vertex="1" parent="mrGNMKnMD3yQpdYrmXUk-23">
          <mxGeometry width="180" height="40" as="geometry" />
        </mxCell>
        <mxCell id="mrGNMKnMD3yQpdYrmXUk-25" value="Phone Number" style="shape=partialRectangle;html=1;whiteSpace=wrap;connectable=0;strokeColor=inherit;overflow=hidden;fillColor=none;top=0;left=0;bottom=0;right=0;pointerEvents=1;" vertex="1" parent="mrGNMKnMD3yQpdYrmXUk-24">
          <mxGeometry width="90" height="40" as="geometry">
            <mxRectangle width="90" height="40" as="alternateBounds" />
          </mxGeometry>
        </mxCell>
        <mxCell id="mrGNMKnMD3yQpdYrmXUk-26" value="User_SSN" style="shape=partialRectangle;html=1;whiteSpace=wrap;connectable=0;strokeColor=inherit;overflow=hidden;fillColor=none;top=0;left=0;bottom=0;right=0;pointerEvents=1;" vertex="1" parent="mrGNMKnMD3yQpdYrmXUk-24">
          <mxGeometry x="90" width="90" height="40" as="geometry">
            <mxRectangle width="90" height="40" as="alternateBounds" />
          </mxGeometry>
        </mxCell>
        <mxCell id="mrGNMKnMD3yQpdYrmXUk-27" value="&lt;font style=&quot;font-size: 14px;&quot;&gt;User_Phone&lt;/font&gt;" style="text;html=1;align=center;verticalAlign=middle;resizable=0;points=[];autosize=1;strokeColor=none;fillColor=none;" vertex="1" parent="1">
          <mxGeometry x="60" y="533" width="100" height="30" as="geometry" />
        </mxCell>
        <mxCell id="mrGNMKnMD3yQpdYrmXUk-31" value="" style="endArrow=none;dashed=1;html=1;rounded=0;fontFamily=Helvetica;fontSize=12;fontColor=default;startSize=0;labelBackgroundColor=none;strokeColor=#CC0000;" edge="1" parent="1">
          <mxGeometry width="50" height="50" relative="1" as="geometry">
            <mxPoint x="180" y="593" as="sourcePoint" />
            <mxPoint x="240" y="593" as="targetPoint" />
          </mxGeometry>
        </mxCell>
        <mxCell id="mrGNMKnMD3yQpdYrmXUk-32" value="" style="endArrow=none;html=1;rounded=0;fontFamily=Helvetica;fontSize=12;fontColor=default;startSize=0;labelBackgroundColor=none;strokeColor=#CC0000;" edge="1" parent="1">
          <mxGeometry width="50" height="50" relative="1" as="geometry">
            <mxPoint x="90" y="613" as="sourcePoint" />
            <mxPoint x="230" y="613" as="targetPoint" />
          </mxGeometry>
        </mxCell>
        <mxCell id="mrGNMKnMD3yQpdYrmXUk-34" value="" style="curved=1;endArrow=classic;html=1;rounded=0;exitX=0.724;exitY=0.06;exitDx=0;exitDy=0;exitPerimeter=0;entryX=0.191;entryY=1.025;entryDx=0;entryDy=0;entryPerimeter=0;" edge="1" parent="1" source="mrGNMKnMD3yQpdYrmXUk-24" target="mrGNMKnMD3yQpdYrmXUk-19">
          <mxGeometry width="50" height="50" relative="1" as="geometry">
            <mxPoint x="230" y="543" as="sourcePoint" />
            <mxPoint x="120" y="503" as="targetPoint" />
            <Array as="points">
              <mxPoint x="211.12" y="533" />
            </Array>
          </mxGeometry>
        </mxCell>
        <mxCell id="mrGNMKnMD3yQpdYrmXUk-35" value="" style="endArrow=none;html=1;rounded=0;fontFamily=Helvetica;fontSize=12;fontColor=default;startSize=0;labelBackgroundColor=none;strokeColor=#CC0000;" edge="1" parent="1">
          <mxGeometry width="50" height="50" relative="1" as="geometry">
            <mxPoint x="80" y="493" as="sourcePoint" />
            <mxPoint x="120" y="493" as="targetPoint" />
          </mxGeometry>
        </mxCell>
        <mxCell id="mrGNMKnMD3yQpdYrmXUk-36" value="" style="shape=table;startSize=0;container=1;collapsible=0;childLayout=tableLayout;" vertex="1" parent="1">
          <mxGeometry x="447" y="210" width="320" height="40" as="geometry" />
        </mxCell>
        <mxCell id="mrGNMKnMD3yQpdYrmXUk-37" value="" style="shape=tableRow;horizontal=0;startSize=0;swimlaneHead=0;swimlaneBody=0;strokeColor=inherit;top=0;left=0;bottom=0;right=0;collapsible=0;dropTarget=0;fillColor=none;points=[[0,0.5],[1,0.5]];portConstraint=eastwest;" vertex="1" parent="mrGNMKnMD3yQpdYrmXUk-36">
          <mxGeometry width="320" height="40" as="geometry" />
        </mxCell>
        <mxCell id="mrGNMKnMD3yQpdYrmXUk-38" value="FloorNumber" style="shape=partialRectangle;html=1;whiteSpace=wrap;connectable=0;strokeColor=inherit;overflow=hidden;fillColor=none;top=0;left=0;bottom=0;right=0;pointerEvents=1;" vertex="1" parent="mrGNMKnMD3yQpdYrmXUk-37">
          <mxGeometry width="80" height="40" as="geometry">
            <mxRectangle width="80" height="40" as="alternateBounds" />
          </mxGeometry>
        </mxCell>
        <mxCell id="mrGNMKnMD3yQpdYrmXUk-39" value="NumOfBlocks" style="shape=partialRectangle;html=1;whiteSpace=wrap;connectable=0;strokeColor=inherit;overflow=hidden;fillColor=none;top=0;left=0;bottom=0;right=0;pointerEvents=1;" vertex="1" parent="mrGNMKnMD3yQpdYrmXUk-37">
          <mxGeometry x="80" width="80" height="40" as="geometry">
            <mxRectangle width="80" height="40" as="alternateBounds" />
          </mxGeometry>
        </mxCell>
        <mxCell id="mrGNMKnMD3yQpdYrmXUk-40" value="Manager_Id" style="shape=partialRectangle;html=1;whiteSpace=wrap;connectable=0;strokeColor=inherit;overflow=hidden;fillColor=none;top=0;left=0;bottom=0;right=0;pointerEvents=1;" vertex="1" parent="mrGNMKnMD3yQpdYrmXUk-37">
          <mxGeometry x="160" width="80" height="40" as="geometry">
            <mxRectangle width="80" height="40" as="alternateBounds" />
          </mxGeometry>
        </mxCell>
        <mxCell id="mrGNMKnMD3yQpdYrmXUk-42" value="Hiring_Date" style="shape=partialRectangle;html=1;whiteSpace=wrap;connectable=0;strokeColor=inherit;overflow=hidden;fillColor=none;top=0;left=0;bottom=0;right=0;pointerEvents=1;" vertex="1" parent="mrGNMKnMD3yQpdYrmXUk-37">
          <mxGeometry x="240" width="80" height="40" as="geometry">
            <mxRectangle width="80" height="40" as="alternateBounds" />
          </mxGeometry>
        </mxCell>
        <mxCell id="mrGNMKnMD3yQpdYrmXUk-41" value="&lt;font style=&quot;font-size: 14px;&quot;&gt;Floor&lt;/font&gt;" style="text;html=1;align=center;verticalAlign=middle;resizable=0;points=[];autosize=1;strokeColor=none;fillColor=none;" vertex="1" parent="1">
          <mxGeometry x="450" y="180" width="60" height="30" as="geometry" />
        </mxCell>
        <mxCell id="mrGNMKnMD3yQpdYrmXUk-43" value="" style="endArrow=none;html=1;rounded=0;fontFamily=Helvetica;fontSize=12;fontColor=default;startSize=0;labelBackgroundColor=none;strokeColor=#CC0000;" edge="1" parent="1">
          <mxGeometry width="50" height="50" relative="1" as="geometry">
            <mxPoint x="450" y="240" as="sourcePoint" />
            <mxPoint x="520" y="240" as="targetPoint" />
          </mxGeometry>
        </mxCell>
        <mxCell id="mrGNMKnMD3yQpdYrmXUk-44" value="" style="endArrow=none;dashed=1;html=1;rounded=0;fontFamily=Helvetica;fontSize=12;fontColor=default;startSize=0;labelBackgroundColor=none;strokeColor=#CC0000;" edge="1" parent="1">
          <mxGeometry width="50" height="50" relative="1" as="geometry">
            <mxPoint x="620" y="240" as="sourcePoint" />
            <mxPoint x="680" y="240" as="targetPoint" />
          </mxGeometry>
        </mxCell>
        <mxCell id="mrGNMKnMD3yQpdYrmXUk-46" value="" style="endArrow=none;dashed=1;html=1;rounded=0;fontFamily=Helvetica;fontSize=12;fontColor=default;startSize=0;labelBackgroundColor=none;strokeColor=#CC0000;" edge="1" parent="1">
          <mxGeometry width="50" height="50" relative="1" as="geometry">
            <mxPoint x="660" y="110" as="sourcePoint" />
            <mxPoint x="720" y="110" as="targetPoint" />
          </mxGeometry>
        </mxCell>
        <mxCell id="mrGNMKnMD3yQpdYrmXUk-47" value="" style="curved=1;endArrow=classic;html=1;rounded=0;exitX=0.933;exitY=1.04;exitDx=0;exitDy=0;exitPerimeter=0;entryX=1.013;entryY=1.12;entryDx=0;entryDy=0;entryPerimeter=0;" edge="1" parent="1" source="NrLQ_2ZnloRHoBe45e5q-14" target="mrGNMKnMD3yQpdYrmXUk-41">
          <mxGeometry width="50" height="50" relative="1" as="geometry">
            <mxPoint x="670" y="160" as="sourcePoint" />
            <mxPoint x="520" y="170" as="targetPoint" />
            <Array as="points">
              <mxPoint x="670" y="150" />
              <mxPoint x="560" y="170" />
            </Array>
          </mxGeometry>
        </mxCell>
        <mxCell id="mrGNMKnMD3yQpdYrmXUk-48" value="" style="curved=1;endArrow=classic;html=1;rounded=0;exitX=0.622;exitY=0.01;exitDx=0;exitDy=0;exitPerimeter=0;entryX=0.529;entryY=1.053;entryDx=0;entryDy=0;entryPerimeter=0;" edge="1" parent="1" source="mrGNMKnMD3yQpdYrmXUk-37" target="mrGNMKnMD3yQpdYrmXUk-1">
          <mxGeometry width="50" height="50" relative="1" as="geometry">
            <mxPoint x="640" y="200" as="sourcePoint" />
            <mxPoint x="100" y="80" as="targetPoint" />
            <Array as="points">
              <mxPoint x="800" y="130" />
              <mxPoint x="750" y="30" />
              <mxPoint x="400" y="40" />
            </Array>
          </mxGeometry>
        </mxCell>
        <mxCell id="mrGNMKnMD3yQpdYrmXUk-49" value="" style="shape=table;startSize=0;container=1;collapsible=0;childLayout=tableLayout;" vertex="1" parent="1">
          <mxGeometry x="380" y="450" width="360" height="40" as="geometry" />
        </mxCell>
        <mxCell id="mrGNMKnMD3yQpdYrmXUk-50" value="" style="shape=tableRow;horizontal=0;startSize=0;swimlaneHead=0;swimlaneBody=0;strokeColor=inherit;top=0;left=0;bottom=0;right=0;collapsible=0;dropTarget=0;fillColor=none;points=[[0,0.5],[1,0.5]];portConstraint=eastwest;" vertex="1" parent="mrGNMKnMD3yQpdYrmXUk-49">
          <mxGeometry width="360" height="40" as="geometry" />
        </mxCell>
        <mxCell id="mrGNMKnMD3yQpdYrmXUk-51" value="ID" style="shape=partialRectangle;html=1;whiteSpace=wrap;connectable=0;strokeColor=inherit;overflow=hidden;fillColor=none;top=0;left=0;bottom=0;right=0;pointerEvents=1;" vertex="1" parent="mrGNMKnMD3yQpdYrmXUk-50">
          <mxGeometry width="63" height="40" as="geometry">
            <mxRectangle width="63" height="40" as="alternateBounds" />
          </mxGeometry>
        </mxCell>
        <mxCell id="mrGNMKnMD3yQpdYrmXUk-52" value="Title" style="shape=partialRectangle;html=1;whiteSpace=wrap;connectable=0;strokeColor=inherit;overflow=hidden;fillColor=none;top=0;left=0;bottom=0;right=0;pointerEvents=1;" vertex="1" parent="mrGNMKnMD3yQpdYrmXUk-50">
          <mxGeometry x="63" width="57" height="40" as="geometry">
            <mxRectangle width="57" height="40" as="alternateBounds" />
          </mxGeometry>
        </mxCell>
        <mxCell id="mrGNMKnMD3yQpdYrmXUk-53" value="Puplisher_Id" style="shape=partialRectangle;html=1;whiteSpace=wrap;connectable=0;strokeColor=inherit;overflow=hidden;fillColor=none;top=0;left=0;bottom=0;right=0;pointerEvents=1;" vertex="1" parent="mrGNMKnMD3yQpdYrmXUk-50">
          <mxGeometry x="120" width="80" height="40" as="geometry">
            <mxRectangle width="80" height="40" as="alternateBounds" />
          </mxGeometry>
        </mxCell>
        <mxCell id="mrGNMKnMD3yQpdYrmXUk-95" value="Category_Id" style="shape=partialRectangle;html=1;whiteSpace=wrap;connectable=0;strokeColor=inherit;overflow=hidden;fillColor=none;top=0;left=0;bottom=0;right=0;pointerEvents=1;" vertex="1" parent="mrGNMKnMD3yQpdYrmXUk-50">
          <mxGeometry x="200" width="80" height="40" as="geometry">
            <mxRectangle width="80" height="40" as="alternateBounds" />
          </mxGeometry>
        </mxCell>
        <mxCell id="R1dU33Yb0TQT9-zfx0Hm-1" value="Shelf_Code" style="shape=partialRectangle;html=1;whiteSpace=wrap;connectable=0;strokeColor=inherit;overflow=hidden;fillColor=none;top=0;left=0;bottom=0;right=0;pointerEvents=1;" vertex="1" parent="mrGNMKnMD3yQpdYrmXUk-50">
          <mxGeometry x="280" width="80" height="40" as="geometry">
            <mxRectangle width="80" height="40" as="alternateBounds" />
          </mxGeometry>
        </mxCell>
        <mxCell id="mrGNMKnMD3yQpdYrmXUk-54" value="&lt;font style=&quot;font-size: 14px;&quot;&gt;Book&lt;/font&gt;" style="text;html=1;align=center;verticalAlign=middle;resizable=0;points=[];autosize=1;strokeColor=none;fillColor=none;" vertex="1" parent="1">
          <mxGeometry x="380" y="420" width="60" height="30" as="geometry" />
        </mxCell>
        <mxCell id="mrGNMKnMD3yQpdYrmXUk-55" value="" style="endArrow=none;html=1;rounded=0;fontFamily=Helvetica;fontSize=12;fontColor=default;startSize=0;labelBackgroundColor=none;strokeColor=#CC0000;" edge="1" parent="1">
          <mxGeometry width="50" height="50" relative="1" as="geometry">
            <mxPoint x="390" y="482" as="sourcePoint" />
            <mxPoint x="430" y="482" as="targetPoint" />
          </mxGeometry>
        </mxCell>
        <mxCell id="mrGNMKnMD3yQpdYrmXUk-56" value="" style="shape=table;startSize=0;container=1;collapsible=0;childLayout=tableLayout;" vertex="1" parent="1">
          <mxGeometry x="380" y="660" width="120" height="40" as="geometry" />
        </mxCell>
        <mxCell id="mrGNMKnMD3yQpdYrmXUk-57" value="" style="shape=tableRow;horizontal=0;startSize=0;swimlaneHead=0;swimlaneBody=0;strokeColor=inherit;top=0;left=0;bottom=0;right=0;collapsible=0;dropTarget=0;fillColor=none;points=[[0,0.5],[1,0.5]];portConstraint=eastwest;" vertex="1" parent="mrGNMKnMD3yQpdYrmXUk-56">
          <mxGeometry width="120" height="40" as="geometry" />
        </mxCell>
        <mxCell id="mrGNMKnMD3yQpdYrmXUk-58" value="ID" style="shape=partialRectangle;html=1;whiteSpace=wrap;connectable=0;strokeColor=inherit;overflow=hidden;fillColor=none;top=0;left=0;bottom=0;right=0;pointerEvents=1;" vertex="1" parent="mrGNMKnMD3yQpdYrmXUk-57">
          <mxGeometry width="60" height="40" as="geometry">
            <mxRectangle width="60" height="40" as="alternateBounds" />
          </mxGeometry>
        </mxCell>
        <mxCell id="mrGNMKnMD3yQpdYrmXUk-59" value="Name" style="shape=partialRectangle;html=1;whiteSpace=wrap;connectable=0;strokeColor=inherit;overflow=hidden;fillColor=none;top=0;left=0;bottom=0;right=0;pointerEvents=1;" vertex="1" parent="mrGNMKnMD3yQpdYrmXUk-57">
          <mxGeometry x="60" width="60" height="40" as="geometry">
            <mxRectangle width="60" height="40" as="alternateBounds" />
          </mxGeometry>
        </mxCell>
        <mxCell id="mrGNMKnMD3yQpdYrmXUk-60" value="&lt;font style=&quot;font-size: 14px;&quot;&gt;Author&lt;/font&gt;" style="text;html=1;align=center;verticalAlign=middle;resizable=0;points=[];autosize=1;strokeColor=none;fillColor=none;" vertex="1" parent="1">
          <mxGeometry x="380" y="630" width="60" height="30" as="geometry" />
        </mxCell>
        <mxCell id="mrGNMKnMD3yQpdYrmXUk-61" value="" style="endArrow=none;html=1;rounded=0;fontFamily=Helvetica;fontSize=12;fontColor=default;startSize=0;labelBackgroundColor=none;strokeColor=#CC0000;" edge="1" parent="1">
          <mxGeometry width="50" height="50" relative="1" as="geometry">
            <mxPoint x="390" y="690" as="sourcePoint" />
            <mxPoint x="430" y="690" as="targetPoint" />
          </mxGeometry>
        </mxCell>
        <mxCell id="mrGNMKnMD3yQpdYrmXUk-62" value="" style="shape=table;startSize=0;container=1;collapsible=0;childLayout=tableLayout;" vertex="1" parent="1">
          <mxGeometry x="690" y="620" width="120" height="40" as="geometry" />
        </mxCell>
        <mxCell id="mrGNMKnMD3yQpdYrmXUk-63" value="" style="shape=tableRow;horizontal=0;startSize=0;swimlaneHead=0;swimlaneBody=0;strokeColor=inherit;top=0;left=0;bottom=0;right=0;collapsible=0;dropTarget=0;fillColor=none;points=[[0,0.5],[1,0.5]];portConstraint=eastwest;" vertex="1" parent="mrGNMKnMD3yQpdYrmXUk-62">
          <mxGeometry width="120" height="40" as="geometry" />
        </mxCell>
        <mxCell id="mrGNMKnMD3yQpdYrmXUk-64" value="ID" style="shape=partialRectangle;html=1;whiteSpace=wrap;connectable=0;strokeColor=inherit;overflow=hidden;fillColor=none;top=0;left=0;bottom=0;right=0;pointerEvents=1;" vertex="1" parent="mrGNMKnMD3yQpdYrmXUk-63">
          <mxGeometry width="60" height="40" as="geometry">
            <mxRectangle width="60" height="40" as="alternateBounds" />
          </mxGeometry>
        </mxCell>
        <mxCell id="mrGNMKnMD3yQpdYrmXUk-65" value="Name" style="shape=partialRectangle;html=1;whiteSpace=wrap;connectable=0;strokeColor=inherit;overflow=hidden;fillColor=none;top=0;left=0;bottom=0;right=0;pointerEvents=1;" vertex="1" parent="mrGNMKnMD3yQpdYrmXUk-63">
          <mxGeometry x="60" width="60" height="40" as="geometry">
            <mxRectangle width="60" height="40" as="alternateBounds" />
          </mxGeometry>
        </mxCell>
        <mxCell id="mrGNMKnMD3yQpdYrmXUk-66" value="&lt;font style=&quot;font-size: 14px;&quot;&gt;Puplisher&lt;/font&gt;" style="text;html=1;align=center;verticalAlign=middle;resizable=0;points=[];autosize=1;strokeColor=none;fillColor=none;" vertex="1" parent="1">
          <mxGeometry x="690" y="590" width="80" height="30" as="geometry" />
        </mxCell>
        <mxCell id="mrGNMKnMD3yQpdYrmXUk-67" value="" style="endArrow=none;html=1;rounded=0;fontFamily=Helvetica;fontSize=12;fontColor=default;startSize=0;labelBackgroundColor=none;strokeColor=#CC0000;" edge="1" parent="1">
          <mxGeometry width="50" height="50" relative="1" as="geometry">
            <mxPoint x="700" y="650" as="sourcePoint" />
            <mxPoint x="740" y="650" as="targetPoint" />
          </mxGeometry>
        </mxCell>
        <mxCell id="mrGNMKnMD3yQpdYrmXUk-74" value="" style="shape=table;startSize=0;container=1;collapsible=0;childLayout=tableLayout;" vertex="1" parent="1">
          <mxGeometry x="537" y="310" width="140" height="40" as="geometry" />
        </mxCell>
        <mxCell id="mrGNMKnMD3yQpdYrmXUk-75" value="" style="shape=tableRow;horizontal=0;startSize=0;swimlaneHead=0;swimlaneBody=0;strokeColor=inherit;top=0;left=0;bottom=0;right=0;collapsible=0;dropTarget=0;fillColor=none;points=[[0,0.5],[1,0.5]];portConstraint=eastwest;" vertex="1" parent="mrGNMKnMD3yQpdYrmXUk-74">
          <mxGeometry width="140" height="40" as="geometry" />
        </mxCell>
        <mxCell id="mrGNMKnMD3yQpdYrmXUk-76" value="Code" style="shape=partialRectangle;html=1;whiteSpace=wrap;connectable=0;strokeColor=inherit;overflow=hidden;fillColor=none;top=0;left=0;bottom=0;right=0;pointerEvents=1;" vertex="1" parent="mrGNMKnMD3yQpdYrmXUk-75">
          <mxGeometry width="60" height="40" as="geometry">
            <mxRectangle width="60" height="40" as="alternateBounds" />
          </mxGeometry>
        </mxCell>
        <mxCell id="mrGNMKnMD3yQpdYrmXUk-77" value="FloorNumber" style="shape=partialRectangle;html=1;whiteSpace=wrap;connectable=0;strokeColor=inherit;overflow=hidden;fillColor=none;top=0;left=0;bottom=0;right=0;pointerEvents=1;" vertex="1" parent="mrGNMKnMD3yQpdYrmXUk-75">
          <mxGeometry x="60" width="80" height="40" as="geometry">
            <mxRectangle width="80" height="40" as="alternateBounds" />
          </mxGeometry>
        </mxCell>
        <mxCell id="mrGNMKnMD3yQpdYrmXUk-78" value="Shelf" style="text;html=1;align=center;verticalAlign=middle;resizable=0;points=[];autosize=1;strokeColor=none;fillColor=none;" vertex="1" parent="1">
          <mxGeometry x="537" y="280" width="50" height="30" as="geometry" />
        </mxCell>
        <mxCell id="mrGNMKnMD3yQpdYrmXUk-79" value="" style="endArrow=none;html=1;rounded=0;fontFamily=Helvetica;fontSize=12;fontColor=default;startSize=0;labelBackgroundColor=none;strokeColor=#CC0000;" edge="1" parent="1">
          <mxGeometry width="50" height="50" relative="1" as="geometry">
            <mxPoint x="550" y="340" as="sourcePoint" />
            <mxPoint x="590" y="340" as="targetPoint" />
          </mxGeometry>
        </mxCell>
        <mxCell id="mrGNMKnMD3yQpdYrmXUk-80" value="" style="shape=table;startSize=0;container=1;collapsible=0;childLayout=tableLayout;" vertex="1" parent="1">
          <mxGeometry x="690" y="540" width="130" height="40" as="geometry" />
        </mxCell>
        <mxCell id="mrGNMKnMD3yQpdYrmXUk-81" value="" style="shape=tableRow;horizontal=0;startSize=0;swimlaneHead=0;swimlaneBody=0;strokeColor=inherit;top=0;left=0;bottom=0;right=0;collapsible=0;dropTarget=0;fillColor=none;points=[[0,0.5],[1,0.5]];portConstraint=eastwest;" vertex="1" parent="mrGNMKnMD3yQpdYrmXUk-80">
          <mxGeometry width="130" height="40" as="geometry" />
        </mxCell>
        <mxCell id="mrGNMKnMD3yQpdYrmXUk-82" value="ID" style="shape=partialRectangle;html=1;whiteSpace=wrap;connectable=0;strokeColor=inherit;overflow=hidden;fillColor=none;top=0;left=0;bottom=0;right=0;pointerEvents=1;" vertex="1" parent="mrGNMKnMD3yQpdYrmXUk-81">
          <mxGeometry width="56" height="40" as="geometry">
            <mxRectangle width="56" height="40" as="alternateBounds" />
          </mxGeometry>
        </mxCell>
        <mxCell id="mrGNMKnMD3yQpdYrmXUk-83" value="Cat_Name" style="shape=partialRectangle;html=1;whiteSpace=wrap;connectable=0;strokeColor=inherit;overflow=hidden;fillColor=none;top=0;left=0;bottom=0;right=0;pointerEvents=1;" vertex="1" parent="mrGNMKnMD3yQpdYrmXUk-81">
          <mxGeometry x="56" width="74" height="40" as="geometry">
            <mxRectangle width="74" height="40" as="alternateBounds" />
          </mxGeometry>
        </mxCell>
        <mxCell id="mrGNMKnMD3yQpdYrmXUk-84" value="&lt;font style=&quot;font-size: 14px;&quot;&gt;Category&lt;/font&gt;" style="text;html=1;align=center;verticalAlign=middle;resizable=0;points=[];autosize=1;strokeColor=none;fillColor=none;" vertex="1" parent="1">
          <mxGeometry x="680" y="510" width="80" height="30" as="geometry" />
        </mxCell>
        <mxCell id="mrGNMKnMD3yQpdYrmXUk-85" value="" style="endArrow=none;html=1;rounded=0;fontFamily=Helvetica;fontSize=12;fontColor=default;startSize=0;labelBackgroundColor=none;strokeColor=#CC0000;" edge="1" parent="1">
          <mxGeometry width="50" height="50" relative="1" as="geometry">
            <mxPoint x="700" y="571.5" as="sourcePoint" />
            <mxPoint x="740" y="571.5" as="targetPoint" />
          </mxGeometry>
        </mxCell>
        <mxCell id="mrGNMKnMD3yQpdYrmXUk-86" value="" style="endArrow=none;dashed=1;html=1;rounded=0;fontFamily=Helvetica;fontSize=12;fontColor=default;startSize=0;labelBackgroundColor=none;strokeColor=#CC0000;" edge="1" parent="1">
          <mxGeometry width="50" height="50" relative="1" as="geometry">
            <mxPoint x="610" y="340" as="sourcePoint" />
            <mxPoint x="670" y="340" as="targetPoint" />
          </mxGeometry>
        </mxCell>
        <mxCell id="mrGNMKnMD3yQpdYrmXUk-87" value="" style="curved=1;endArrow=classic;html=1;rounded=0;entryX=0.129;entryY=0.99;entryDx=0;entryDy=0;entryPerimeter=0;exitX=0.87;exitY=-0.03;exitDx=0;exitDy=0;exitPerimeter=0;" edge="1" parent="1" source="mrGNMKnMD3yQpdYrmXUk-75">
          <mxGeometry width="50" height="50" relative="1" as="geometry">
            <mxPoint x="652.3199999999999" y="321" as="sourcePoint" />
            <mxPoint x="500" y="250.00000000000003" as="targetPoint" />
            <Array as="points">
              <mxPoint x="641.72" y="280.4" />
              <mxPoint x="591.72" y="290.4" />
            </Array>
          </mxGeometry>
        </mxCell>
        <mxCell id="mrGNMKnMD3yQpdYrmXUk-89" value="" style="endArrow=none;dashed=1;html=1;rounded=0;fontFamily=Helvetica;fontSize=12;fontColor=default;startSize=0;labelBackgroundColor=none;strokeColor=#CC0000;" edge="1" parent="1">
          <mxGeometry width="50" height="50" relative="1" as="geometry">
            <mxPoint x="590" y="480" as="sourcePoint" />
            <mxPoint x="650" y="480" as="targetPoint" />
          </mxGeometry>
        </mxCell>
        <mxCell id="mrGNMKnMD3yQpdYrmXUk-90" value="" style="curved=1;endArrow=classic;html=1;rounded=0;entryX=0.226;entryY=0.96;entryDx=0;entryDy=0;entryPerimeter=0;exitX=0.903;exitY=0.06;exitDx=0;exitDy=0;exitPerimeter=0;" edge="1" parent="1" source="mrGNMKnMD3yQpdYrmXUk-50" target="mrGNMKnMD3yQpdYrmXUk-75">
          <mxGeometry width="50" height="50" relative="1" as="geometry">
            <mxPoint x="740" y="420" as="sourcePoint" />
            <mxPoint x="574" y="383" as="targetPoint" />
            <Array as="points">
              <mxPoint x="710" y="400" />
              <mxPoint x="660" y="430" />
            </Array>
          </mxGeometry>
        </mxCell>
        <mxCell id="mrGNMKnMD3yQpdYrmXUk-102" value="" style="endArrow=none;dashed=1;html=1;rounded=0;fontFamily=Helvetica;fontSize=12;fontColor=default;startSize=0;labelBackgroundColor=none;strokeColor=#CC0000;" edge="1" parent="1">
          <mxGeometry width="50" height="50" relative="1" as="geometry">
            <mxPoint x="510" y="480" as="sourcePoint" />
            <mxPoint x="570" y="480" as="targetPoint" />
          </mxGeometry>
        </mxCell>
        <mxCell id="mrGNMKnMD3yQpdYrmXUk-103" value="" style="curved=1;endArrow=classic;html=1;rounded=0;exitX=0.447;exitY=1;exitDx=0;exitDy=0;exitPerimeter=0;entryX=0;entryY=0.5;entryDx=0;entryDy=0;" edge="1" parent="1" source="mrGNMKnMD3yQpdYrmXUk-50" target="mrGNMKnMD3yQpdYrmXUk-63">
          <mxGeometry width="50" height="50" relative="1" as="geometry">
            <mxPoint x="540" y="577" as="sourcePoint" />
            <mxPoint x="500" y="600" as="targetPoint" />
            <Array as="points">
              <mxPoint x="560" y="520" />
              <mxPoint x="620" y="615" />
            </Array>
          </mxGeometry>
        </mxCell>
        <mxCell id="R1dU33Yb0TQT9-zfx0Hm-2" value="" style="endArrow=none;dashed=1;html=1;rounded=0;fontFamily=Helvetica;fontSize=12;fontColor=default;startSize=0;labelBackgroundColor=none;strokeColor=#CC0000;" edge="1" parent="1">
          <mxGeometry width="50" height="50" relative="1" as="geometry">
            <mxPoint x="670" y="480" as="sourcePoint" />
            <mxPoint x="730" y="480" as="targetPoint" />
          </mxGeometry>
        </mxCell>
        <mxCell id="R1dU33Yb0TQT9-zfx0Hm-3" value="" style="curved=1;endArrow=classic;html=1;rounded=0;exitX=0.662;exitY=0.96;exitDx=0;exitDy=0;exitPerimeter=0;entryX=0;entryY=0.5;entryDx=0;entryDy=0;" edge="1" parent="1" source="mrGNMKnMD3yQpdYrmXUk-50" target="mrGNMKnMD3yQpdYrmXUk-81">
          <mxGeometry width="50" height="50" relative="1" as="geometry">
            <mxPoint x="551" y="500" as="sourcePoint" />
            <mxPoint x="440" y="622" as="targetPoint" />
            <Array as="points">
              <mxPoint x="650" y="560" />
            </Array>
          </mxGeometry>
        </mxCell>
        <mxCell id="R1dU33Yb0TQT9-zfx0Hm-4" value="" style="shape=table;startSize=0;container=1;collapsible=0;childLayout=tableLayout;" vertex="1" parent="1">
          <mxGeometry x="395" y="550" width="120" height="40" as="geometry" />
        </mxCell>
        <mxCell id="R1dU33Yb0TQT9-zfx0Hm-5" value="" style="shape=tableRow;horizontal=0;startSize=0;swimlaneHead=0;swimlaneBody=0;strokeColor=inherit;top=0;left=0;bottom=0;right=0;collapsible=0;dropTarget=0;fillColor=none;points=[[0,0.5],[1,0.5]];portConstraint=eastwest;" vertex="1" parent="R1dU33Yb0TQT9-zfx0Hm-4">
          <mxGeometry width="120" height="40" as="geometry" />
        </mxCell>
        <mxCell id="R1dU33Yb0TQT9-zfx0Hm-6" value="Book_Id" style="shape=partialRectangle;html=1;whiteSpace=wrap;connectable=0;strokeColor=inherit;overflow=hidden;fillColor=none;top=0;left=0;bottom=0;right=0;pointerEvents=1;" vertex="1" parent="R1dU33Yb0TQT9-zfx0Hm-5">
          <mxGeometry width="60" height="40" as="geometry">
            <mxRectangle width="60" height="40" as="alternateBounds" />
          </mxGeometry>
        </mxCell>
        <mxCell id="R1dU33Yb0TQT9-zfx0Hm-7" value="Author_Id" style="shape=partialRectangle;html=1;whiteSpace=wrap;connectable=0;strokeColor=inherit;overflow=hidden;fillColor=none;top=0;left=0;bottom=0;right=0;pointerEvents=1;" vertex="1" parent="R1dU33Yb0TQT9-zfx0Hm-5">
          <mxGeometry x="60" width="60" height="40" as="geometry">
            <mxRectangle width="60" height="40" as="alternateBounds" />
          </mxGeometry>
        </mxCell>
        <mxCell id="R1dU33Yb0TQT9-zfx0Hm-8" value="&lt;font style=&quot;font-size: 14px;&quot;&gt;Book_Author&lt;/font&gt;" style="text;html=1;align=center;verticalAlign=middle;resizable=0;points=[];autosize=1;strokeColor=none;fillColor=none;" vertex="1" parent="1">
          <mxGeometry x="390" y="520" width="100" height="30" as="geometry" />
        </mxCell>
        <mxCell id="R1dU33Yb0TQT9-zfx0Hm-9" value="" style="endArrow=none;dashed=1;html=1;rounded=0;fontFamily=Helvetica;fontSize=12;fontColor=default;startSize=0;labelBackgroundColor=none;strokeColor=#CC0000;" edge="1" parent="1">
          <mxGeometry width="50" height="50" relative="1" as="geometry">
            <mxPoint x="405" y="580" as="sourcePoint" />
            <mxPoint x="505" y="580.5" as="targetPoint" />
          </mxGeometry>
        </mxCell>
        <mxCell id="R1dU33Yb0TQT9-zfx0Hm-10" value="" style="endArrow=none;html=1;rounded=0;fontFamily=Helvetica;fontSize=12;fontColor=default;startSize=0;labelBackgroundColor=none;strokeColor=#CC0000;" edge="1" parent="1">
          <mxGeometry width="50" height="50" relative="1" as="geometry">
            <mxPoint x="407.5" y="600" as="sourcePoint" />
            <mxPoint x="502.5" y="600" as="targetPoint" />
          </mxGeometry>
        </mxCell>
        <mxCell id="R1dU33Yb0TQT9-zfx0Hm-11" value="" style="curved=1;endArrow=classic;html=1;rounded=0;exitX=0;exitY=0.5;exitDx=0;exitDy=0;" edge="1" parent="1" source="R1dU33Yb0TQT9-zfx0Hm-5">
          <mxGeometry width="50" height="50" relative="1" as="geometry">
            <mxPoint x="280" y="580" as="sourcePoint" />
            <mxPoint x="400" y="490" as="targetPoint" />
            <Array as="points">
              <mxPoint x="370" y="570" />
              <mxPoint x="380" y="510" />
            </Array>
          </mxGeometry>
        </mxCell>
        <mxCell id="R1dU33Yb0TQT9-zfx0Hm-12" value="" style="curved=1;endArrow=classic;html=1;rounded=0;exitX=1;exitY=0.5;exitDx=0;exitDy=0;entryX=0.76;entryY=0.973;entryDx=0;entryDy=0;entryPerimeter=0;" edge="1" parent="1" source="R1dU33Yb0TQT9-zfx0Hm-5" target="mrGNMKnMD3yQpdYrmXUk-60">
          <mxGeometry width="50" height="50" relative="1" as="geometry">
            <mxPoint x="520" y="630" as="sourcePoint" />
            <mxPoint x="490" y="630" as="targetPoint" />
            <Array as="points">
              <mxPoint x="570" y="630" />
            </Array>
          </mxGeometry>
        </mxCell>
        <mxCell id="R1dU33Yb0TQT9-zfx0Hm-13" value="" style="shape=table;startSize=0;container=1;collapsible=0;childLayout=tableLayout;" vertex="1" parent="1">
          <mxGeometry x="50" y="280" width="410" height="40" as="geometry" />
        </mxCell>
        <mxCell id="R1dU33Yb0TQT9-zfx0Hm-14" value="" style="shape=tableRow;horizontal=0;startSize=0;swimlaneHead=0;swimlaneBody=0;strokeColor=inherit;top=0;left=0;bottom=0;right=0;collapsible=0;dropTarget=0;fillColor=none;points=[[0,0.5],[1,0.5]];portConstraint=eastwest;" vertex="1" parent="R1dU33Yb0TQT9-zfx0Hm-13">
          <mxGeometry width="410" height="40" as="geometry" />
        </mxCell>
        <mxCell id="R1dU33Yb0TQT9-zfx0Hm-15" value="Emp_Id" style="shape=partialRectangle;html=1;whiteSpace=wrap;connectable=0;strokeColor=inherit;overflow=hidden;fillColor=none;top=0;left=0;bottom=0;right=0;pointerEvents=1;" vertex="1" parent="R1dU33Yb0TQT9-zfx0Hm-14">
          <mxGeometry width="50" height="40" as="geometry">
            <mxRectangle width="50" height="40" as="alternateBounds" />
          </mxGeometry>
        </mxCell>
        <mxCell id="R1dU33Yb0TQT9-zfx0Hm-16" value="User_SSN" style="shape=partialRectangle;html=1;whiteSpace=wrap;connectable=0;strokeColor=inherit;overflow=hidden;fillColor=none;top=0;left=0;bottom=0;right=0;pointerEvents=1;" vertex="1" parent="R1dU33Yb0TQT9-zfx0Hm-14">
          <mxGeometry x="50" width="60" height="40" as="geometry">
            <mxRectangle width="60" height="40" as="alternateBounds" />
          </mxGeometry>
        </mxCell>
        <mxCell id="R1dU33Yb0TQT9-zfx0Hm-17" value="Book_Id" style="shape=partialRectangle;html=1;whiteSpace=wrap;connectable=0;strokeColor=inherit;overflow=hidden;fillColor=none;top=0;left=0;bottom=0;right=0;pointerEvents=1;" vertex="1" parent="R1dU33Yb0TQT9-zfx0Hm-14">
          <mxGeometry x="110" width="60" height="40" as="geometry">
            <mxRectangle width="60" height="40" as="alternateBounds" />
          </mxGeometry>
        </mxCell>
        <mxCell id="R1dU33Yb0TQT9-zfx0Hm-18" value="Date_Borrowed" style="shape=partialRectangle;html=1;whiteSpace=wrap;connectable=0;strokeColor=inherit;overflow=hidden;fillColor=none;top=0;left=0;bottom=0;right=0;pointerEvents=1;" vertex="1" parent="R1dU33Yb0TQT9-zfx0Hm-14">
          <mxGeometry x="170" width="90" height="40" as="geometry">
            <mxRectangle width="90" height="40" as="alternateBounds" />
          </mxGeometry>
        </mxCell>
        <mxCell id="R1dU33Yb0TQT9-zfx0Hm-19" value="Due_Date" style="shape=partialRectangle;html=1;whiteSpace=wrap;connectable=0;strokeColor=inherit;overflow=hidden;fillColor=none;top=0;left=0;bottom=0;right=0;pointerEvents=1;" vertex="1" parent="R1dU33Yb0TQT9-zfx0Hm-14">
          <mxGeometry x="260" width="70" height="40" as="geometry">
            <mxRectangle width="70" height="40" as="alternateBounds" />
          </mxGeometry>
        </mxCell>
        <mxCell id="R1dU33Yb0TQT9-zfx0Hm-20" value="Amount_Paid" style="shape=partialRectangle;html=1;whiteSpace=wrap;connectable=0;strokeColor=inherit;overflow=hidden;fillColor=none;top=0;left=0;bottom=0;right=0;pointerEvents=1;" vertex="1" parent="R1dU33Yb0TQT9-zfx0Hm-14">
          <mxGeometry x="330" width="80" height="40" as="geometry">
            <mxRectangle width="80" height="40" as="alternateBounds" />
          </mxGeometry>
        </mxCell>
        <mxCell id="R1dU33Yb0TQT9-zfx0Hm-21" value="&lt;font style=&quot;font-size: 14px;&quot;&gt;Borrow_Records&lt;/font&gt;" style="text;html=1;align=center;verticalAlign=middle;resizable=0;points=[];autosize=1;strokeColor=none;fillColor=none;" vertex="1" parent="1">
          <mxGeometry x="50" y="250" width="130" height="30" as="geometry" />
        </mxCell>
        <mxCell id="R1dU33Yb0TQT9-zfx0Hm-22" value="" style="endArrow=none;dashed=1;html=1;rounded=0;fontFamily=Helvetica;fontSize=12;fontColor=default;startSize=0;labelBackgroundColor=none;strokeColor=#CC0000;" edge="1" parent="1">
          <mxGeometry width="50" height="50" relative="1" as="geometry">
            <mxPoint x="60" y="310" as="sourcePoint" />
            <mxPoint x="210" y="310" as="targetPoint" />
          </mxGeometry>
        </mxCell>
        <mxCell id="XuTWEZ1uUp6iVPkM86a--1" value="" style="curved=1;endArrow=classic;html=1;rounded=0;strokeColor=#000000;fontColor=#143642;fillColor=#FAE5C7;exitX=0;exitY=0.5;exitDx=0;exitDy=0;entryX=0;entryY=0.5;entryDx=0;entryDy=0;" edge="1" parent="1" source="R1dU33Yb0TQT9-zfx0Hm-14" target="NrLQ_2ZnloRHoBe45e5q-14">
          <mxGeometry width="50" height="50" relative="1" as="geometry">
            <mxPoint x="20" y="220" as="sourcePoint" />
            <mxPoint x="70" y="170" as="targetPoint" />
            <Array as="points">
              <mxPoint x="20" y="230" />
              <mxPoint x="20" y="170" />
              <mxPoint x="40" y="130" />
            </Array>
          </mxGeometry>
        </mxCell>
        <mxCell id="XuTWEZ1uUp6iVPkM86a--2" value="" style="curved=1;endArrow=classic;html=1;rounded=0;strokeColor=#000000;fontColor=#143642;fillColor=#FAE5C7;entryX=0.213;entryY=0.032;entryDx=0;entryDy=0;entryPerimeter=0;exitX=0.174;exitY=1;exitDx=0;exitDy=0;exitPerimeter=0;" edge="1" parent="1" source="R1dU33Yb0TQT9-zfx0Hm-14" target="mrGNMKnMD3yQpdYrmXUk-19">
          <mxGeometry width="50" height="50" relative="1" as="geometry">
            <mxPoint x="125" y="330" as="sourcePoint" />
            <mxPoint x="240" y="350" as="targetPoint" />
            <Array as="points">
              <mxPoint x="130" y="370" />
              <mxPoint x="180" y="410" />
            </Array>
          </mxGeometry>
        </mxCell>
        <mxCell id="XuTWEZ1uUp6iVPkM86a--3" value="" style="curved=1;endArrow=classic;html=1;rounded=0;strokeColor=#000000;fontColor=#143642;fillColor=#FAE5C7;entryX=0;entryY=0.5;entryDx=0;entryDy=0;exitX=0.32;exitY=1.02;exitDx=0;exitDy=0;exitPerimeter=0;" edge="1" parent="1" source="R1dU33Yb0TQT9-zfx0Hm-14" target="mrGNMKnMD3yQpdYrmXUk-50">
          <mxGeometry width="50" height="50" relative="1" as="geometry">
            <mxPoint x="203" y="310" as="sourcePoint" />
            <mxPoint x="190" y="457" as="targetPoint" />
            <Array as="points">
              <mxPoint x="210" y="380" />
              <mxPoint x="262" y="400" />
            </Array>
          </mxGeometry>
        </mxCell>
        <mxCell id="XuTWEZ1uUp6iVPkM86a--4" value="" style="endArrow=none;html=1;rounded=0;fontFamily=Helvetica;fontSize=12;fontColor=default;startSize=0;labelBackgroundColor=none;strokeColor=#CC0000;" edge="1" parent="1">
          <mxGeometry width="50" height="50" relative="1" as="geometry">
            <mxPoint x="60" y="330" as="sourcePoint" />
            <mxPoint x="300" y="330" as="targetPoint" />
          </mxGeometry>
        </mxCell>
      </root>
    </mxGraphModel>
  </diagram>
</mxfile>
